<svg xmlns="http://www.w3.org/2000/svg" xmlns:v="https://svgstorm.com"
viewBox = "0 0 1366 768"
width="1366"
height="768">
<g fill="None" fill-opacity="0.0" stroke="#FEFEFE" stroke-opacity="1.00" stroke-width="0.3"><path d="
M 0.00 428.00 
C 48.33 428.00 96.67 428.00 145.00 428.00 C 161.89 424.33 159.91 446.14 166.00 456.00
C 170.03 447.63 170.90 437.32 173.00 428.00 C 174.61 421.90 176.84 401.91 185.77 412.23 C 187.56 422.03 190.80 431.30 193.00 441.00
C 213.90 435.04 211.48 460.19 216.00 473.00
C 219.59 442.14 219.65 409.52 222.00 378.00 C 217.28 364.50 233.62 362.70 232.98 376.02 C 237.84 393.89 242.71 411.72 247.32 429.68 C 246.59 443.13 258.17 443.24 269.00 442.00
C 270.10 428.64 283.77 418.60 297.00 420.00
C 318.30 388.78 352.45 365.45 388.00 356.00
C 388.53 354.40 390.75 355.28 392.00 355.00
C 389.94 351.14 388.72 344.90 391.00 341.00
C 393.13 343.43 391.47 347.82 392.00 351.00
C 394.50 349.67 391.43 345.26 394.00 344.00
C 395.40 351.70 390.03 360.26 395.00 367.00
C 397.31 364.18 397.80 364.60 401.00 366.00
C 404.57 358.73 399.11 349.71 402.00 343.00
C 404.08 345.10 402.50 349.15 403.00 352.00
C 407.69 343.60 401.17 336.99 392.00 340.00
C 398.07 338.04 391.71 334.64 395.75 330.75 C 400.46 327.46 404.39 335.09 400.00 338.00
C 406.53 337.65 406.47 345.30 406.00 350.00
C 437.40 347.65 469.49 348.34 498.00 360.00
C 502.93 348.95 516.48 343.25 529.00 343.00
C 529.35 351.47 529.16 361.05 523.00 367.00
C 525.89 360.15 527.95 352.93 527.00 345.00
C 520.06 346.44 512.32 346.62 506.75 351.75 C 497.99 355.59 503.81 368.02 507.00 357.00
C 509.87 363.32 506.77 368.41 501.00 371.00
C 500.33 367.80 502.71 362.70 499.00 361.00
C 499.00 362.33 499.00 363.67 499.00 365.00
C 494.61 362.70 490.35 360.03 485.00 361.00
C 484.45 368.66 490.48 377.03 499.00 375.00 C 505.69 373.89 515.02 376.77 520.00 370.00
C 515.04 372.25 509.85 373.84 504.00 373.00
C 504.59 367.62 510.76 367.58 515.00 368.00
C 512.36 366.10 507.69 368.23 510.00 363.00
C 515.55 367.18 523.53 368.49 530.00 372.00
C 551.92 381.99 573.15 393.63 596.00 401.00
C 598.56 402.06 602.26 401.55 604.00 404.00
C 627.65 411.36 653.86 414.22 679.00 410.00
C 683.68 407.78 683.35 398.37 678.00 397.00
C 678.78 392.31 678.49 386.78 682.25 383.25 C 688.09 382.35 692.98 384.50 698.00 382.00
C 694.86 379.36 695.00 372.14 700.03 372.03 C 705.34 372.22 705.24 380.50 701.00 382.00
C 706.39 380.88 708.77 385.57 708.98 390.02 C 711.46 395.85 708.08 398.17 706.00 402.00
C 708.23 402.52 709.73 400.46 712.00 401.00
C 733.67 393.66 753.91 381.99 775.00 373.00
C 795.08 363.63 815.97 356.89 837.22 351.22 C 844.12 348.71 856.50 352.74 858.00 344.00
C 861.00 344.00 864.00 344.00 867.00 344.00
C 860.76 329.10 886.22 329.08 880.00 344.00
C 883.33 344.00 886.67 344.00 890.00 344.00
C 893.27 354.40 909.61 349.79 918.22 354.78 C 953.87 365.62 988.64 388.16 1010.00 420.00
C 1022.74 419.26 1034.59 429.47 1036.00 442.00
C 1041.67 442.00 1047.33 442.00 1053.00 442.00
C 1057.48 422.51 1063.54 403.51 1067.99 383.99 C 1070.63 377.92 1071.65 358.33 1081.75 368.25 C 1083.25 403.23 1084.22 438.81 1087.00 473.00
C 1093.14 462.00 1088.07 436.63 1107.00 440.00 C 1118.80 436.85 1110.70 403.83 1126.75 411.25 C 1129.55 425.96 1133.73 440.17 1136.00 455.00
C 1144.94 447.62 1141.29 422.75 1160.00 428.00 C 1228.67 428.00 1297.33 428.00 1366.00 428.00
L 1366.00 0.00
L 0.00 0.00
L 0.00 428.00
M 305.00 338.00 
C 307.62 348.74 307.07 360.34 310.00 371.00
C 312.07 365.26 311.25 357.89 314.00 352.00
C 317.41 354.65 316.16 360.22 318.00 364.00
C 318.81 358.89 326.58 359.02 330.00 361.00
C 327.90 363.08 323.85 361.50 321.00 362.00
C 320.60 364.11 319.62 366.66 318.00 368.00
C 315.68 365.44 316.22 361.23 315.00 358.00
C 312.22 364.88 313.64 374.42 310.00 381.00
C 305.98 371.02 306.91 358.88 305.00 348.00
C 301.05 353.13 303.15 361.60 300.00 367.00
C 297.73 364.69 296.74 361.17 296.00 358.00
C 294.20 362.41 287.51 363.35 284.00 361.00
C 288.73 359.75 293.61 360.31 296.00 355.00
C 297.47 356.49 298.74 358.78 299.00 361.00
C 302.87 354.39 300.36 344.04 305.00 338.00
M 1002.00 368.00 
C 1005.51 363.75 1002.93 356.35 1006.00 352.00
C 1008.88 354.50 1008.76 359.39 1010.00 363.00
C 1011.82 358.86 1018.85 359.22 1022.00 361.00
C 1017.59 362.59 1011.20 360.94 1011.00 368.00
C 1007.86 367.84 1009.21 362.90 1007.00 361.00
C 1003.91 367.13 1004.65 375.79 1002.00 382.00
C 996.69 373.45 1000.20 360.81 997.00 351.00
C 993.64 355.37 994.40 362.38 992.00 367.00
C 988.98 365.52 989.79 361.48 988.00 359.00
C 986.18 363.14 979.15 362.78 976.00 361.00
C 979.55 359.22 986.16 361.09 987.00 355.00
C 990.06 354.65 989.19 359.47 992.00 360.00
C 992.79 352.55 994.42 345.26 996.00 338.00
C 1000.78 346.44 999.34 358.29 1002.00 368.00
M 523.00 351.00 
C 519.81 354.98 515.97 358.89 512.00 362.00
C 513.18 358.92 513.09 355.42 513.00 352.00
C 516.64 350.75 513.47 359.00 516.75 355.73 C 518.87 354.21 520.14 350.98 523.00 351.00
M 396.00 353.00 
C 397.60 356.21 397.53 360.79 396.00 364.00
C 394.44 361.39 394.28 355.54 396.00 353.00
M 399.00 364.00 
C 397.68 360.62 398.00 356.73 398.00 353.00
C 402.68 352.08 402.20 363.41 399.00 364.00
M 497.00 367.00 
C 493.89 369.65 492.05 364.27 489.00 364.00
C 489.98 368.31 496.85 369.85 498.00 374.00
C 491.20 374.69 486.37 368.39 487.00 362.00
C 490.62 362.42 495.15 363.39 497.00 367.00
M 689.00 375.00 
C 696.06 386.85 675.17 378.28 689.00 375.00 Z"/>
</g>
<g fill="None" fill-opacity="0.0" stroke="#86AEBC" stroke-opacity="1.00" stroke-width="0.3"><path d="
M 388.00 356.00 
C 390.84 358.34 378.48 358.64 375.77 361.77 C 349.67 370.83 327.37 389.29 308.30 408.30 C 303.02 411.12 301.60 418.66 297.00 420.00
C 283.77 418.60 270.10 428.64 269.00 442.00
C 258.17 443.24 246.59 443.13 247.32 429.68 C 242.71 411.72 237.84 393.89 232.98 376.02 C 233.62 362.70 217.28 364.50 222.00 378.00 C 219.65 409.52 219.59 442.14 216.00 473.00
C 211.48 460.19 213.90 435.04 193.00 441.00
C 190.80 431.30 187.56 422.03 185.77 412.23 C 176.84 401.91 174.61 421.90 173.00 428.00 C 170.90 437.32 170.03 447.63 166.00 456.00
C 159.91 446.14 161.89 424.33 145.00 428.00 C 96.67 428.00 48.33 428.00 0.00 428.00
L 0.00 437.00
C 50.00 437.00 100.00 437.00 150.00 437.00
C 154.85 450.70 158.21 466.50 167.08 477.92 C 175.82 476.62 173.03 464.22 175.98 457.98 C 177.06 449.50 180.31 441.60 181.00 433.00
C 183.42 442.97 187.22 454.41 201.00 450.00
C 203.84 459.94 206.51 469.99 208.99 480.01 C 213.40 488.71 210.96 502.76 220.03 507.97 C 229.83 501.74 222.95 485.29 226.00 475.00 C 227.66 450.42 227.91 425.48 230.00 401.00
C 235.05 415.78 238.33 431.86 242.93 447.07 C 247.43 455.28 260.86 449.06 269.00 451.00
C 272.13 478.36 316.71 478.49 319.98 450.98 C 323.55 441.66 313.62 433.34 317.00 426.00
C 315.54 426.55 314.82 428.40 313.00 428.00
C 344.60 388.63 394.06 362.57 445.00 369.00
C 445.30 369.22 445.79 369.96 446.00 370.00
C 461.99 370.47 476.82 375.35 492.00 379.00
C 498.59 375.90 506.56 376.04 513.00 381.00
C 511.86 377.42 517.42 376.97 520.00 379.00
C 518.00 370.28 528.61 376.35 530.00 372.00
C 523.53 368.49 515.55 367.18 510.00 363.00
C 507.69 368.23 512.36 366.10 515.00 368.00
C 510.76 367.58 504.59 367.62 504.00 373.00
C 509.85 373.84 515.04 372.25 520.00 370.00
C 515.02 376.77 505.69 373.89 499.00 375.00 C 490.48 377.03 484.45 368.66 485.00 361.00
C 490.35 360.03 494.61 362.70 499.00 365.00
C 499.00 363.67 499.00 362.33 499.00 361.00
C 498.67 360.83 498.27 360.18 498.00 360.00
C 469.49 348.34 437.40 347.65 406.00 350.00
C 406.47 345.30 406.53 337.65 400.00 338.00
C 404.39 335.09 400.46 327.46 395.75 330.75 C 391.71 334.64 398.07 338.04 392.00 340.00
C 401.17 336.99 407.69 343.60 403.00 352.00
C 402.50 349.15 404.08 345.10 402.00 343.00
C 399.11 349.71 404.57 358.73 401.00 366.00
C 397.80 364.60 397.31 364.18 395.00 367.00
C 390.03 360.26 395.40 351.70 394.00 344.00
C 391.43 345.26 394.50 349.67 392.00 351.00
C 391.47 347.82 393.13 343.43 391.00 341.00
C 388.72 344.90 389.94 351.14 392.00 355.00
C 390.75 355.28 388.53 354.40 388.00 356.00
M 400.00 332.00 
C 400.49 340.46 391.46 330.70 400.00 332.00 Z"/>
</g>
<g fill="None" fill-opacity="0.0" stroke="#F3F7F9" stroke-opacity="1.00" stroke-width="0.3"><path d="
M 400.00 332.00 
C 391.46 330.70 400.49 340.46 400.00 332.00 Z"/>
</g>
<g fill="None" fill-opacity="0.0" stroke="#B6D5A4" stroke-opacity="1.00" stroke-width="0.3"><path d="
M 775.00 373.00 
C 771.41 379.13 761.91 379.90 756.00 384.00
C 757.77 386.77 755.57 388.36 755.00 391.00
C 752.21 386.28 753.53 390.49 749.00 391.00
C 750.87 393.78 753.74 390.94 752.00 396.00
C 753.50 394.11 761.00 394.63 761.00 398.00
C 774.70 396.60 788.24 385.13 802.00 384.00
C 836.14 370.71 876.63 364.50 913.07 374.93 C 942.58 384.80 970.28 402.12 991.00 427.00
C 981.46 439.20 982.01 461.88 998.08 468.92 C 1012.38 477.21 1032.59 468.22 1036.00 452.00
C 1049.46 453.85 1064.74 452.73 1063.98 435.98 C 1066.78 424.26 1070.17 412.73 1073.00 401.00
C 1075.73 424.91 1076.06 450.30 1077.00 475.00 C 1080.69 485.09 1074.12 501.49 1083.03 507.97 C 1092.92 504.42 1089.76 488.95 1094.78 480.78 C 1097.29 470.41 1099.74 460.12 1103.00 450.00
C 1115.52 453.87 1120.16 444.72 1122.00 435.00
C 1125.04 445.14 1127.30 455.49 1129.00 466.00 C 1128.33 481.36 1142.71 479.34 1143.77 465.77 C 1146.40 455.87 1151.41 446.89 1154.00 437.00
C 1224.67 437.00 1295.33 437.00 1366.00 437.00
L 1366.00 428.00
C 1297.33 428.00 1228.67 428.00 1160.00 428.00 C 1141.29 422.75 1144.94 447.62 1136.00 455.00
C 1133.73 440.17 1129.55 425.96 1126.75 411.25 C 1110.70 403.83 1118.80 436.85 1107.00 440.00 C 1088.07 436.63 1093.14 462.00 1087.00 473.00
C 1084.22 438.81 1083.25 403.23 1081.75 368.25 C 1071.65 358.33 1070.63 377.92 1067.99 383.99 C 1063.54 403.51 1057.48 422.51 1053.00 442.00
C 1047.33 442.00 1041.67 442.00 1036.00 442.00
C 1034.59 429.47 1022.74 419.26 1010.00 420.00
C 988.64 388.16 953.87 365.62 918.22 354.78 C 909.61 349.79 893.27 354.40 890.00 344.00
C 886.67 344.00 883.33 344.00 880.00 344.00
C 886.22 329.08 860.76 329.10 867.00 344.00
C 864.00 344.00 861.00 344.00 858.00 344.00
C 856.50 352.74 844.12 348.71 837.22 351.22 C 815.97 356.89 795.08 363.63 775.00 373.00
M 878.00 335.00 
C 878.00 338.67 878.00 342.33 878.00 346.00
C 891.56 339.66 895.08 361.74 880.00 357.00
C 882.85 366.28 875.80 368.62 868.00 367.00
C 868.00 363.33 868.00 359.67 868.00 356.00
C 852.89 361.31 855.26 340.64 869.00 346.00
C 869.00 342.33 869.00 338.67 869.00 335.00
C 872.00 335.00 875.00 335.00 878.00 335.00 Z"/>
</g>
<g fill="None" fill-opacity="0.0" stroke="#F4F8F0" stroke-opacity="1.00" stroke-width="0.3"><path d="
M 878.00 335.00 
C 875.00 335.00 872.00 335.00 869.00 335.00
C 869.00 338.67 869.00 342.33 869.00 346.00
C 855.26 340.64 852.89 361.31 868.00 356.00
C 868.00 359.67 868.00 363.33 868.00 367.00
C 875.80 368.62 882.85 366.28 880.00 357.00
C 895.08 361.74 891.56 339.66 878.00 346.00
C 878.00 342.33 878.00 338.67 878.00 335.00
M 889.00 355.00 
C 881.22 353.10 875.52 356.49 878.00 365.00
C 875.00 365.00 872.00 365.00 869.00 365.00
C 869.00 361.67 869.00 358.33 869.00 355.00
C 865.67 355.00 862.33 355.00 859.00 355.00
C 855.95 344.68 867.91 348.73 874.00 348.00 C 879.86 348.56 891.62 344.97 889.00 355.00 Z"/>
</g>
<g fill="None" fill-opacity="0.0" stroke="#8EA8BC" stroke-opacity="1.00" stroke-width="0.3"><path d="
M 305.00 338.00 
C 300.36 344.04 302.87 354.39 299.00 361.00
C 298.74 358.78 297.47 356.49 296.00 355.00
C 293.61 360.31 288.73 359.75 284.00 361.00
C 287.51 363.35 294.20 362.41 296.00 358.00
C 296.74 361.17 297.73 364.69 300.00 367.00
C 303.15 361.60 301.05 353.13 305.00 348.00
C 306.91 358.88 305.98 371.02 310.00 381.00
C 313.64 374.42 312.22 364.88 315.00 358.00
C 316.22 361.23 315.68 365.44 318.00 368.00
C 319.62 366.66 320.60 364.11 321.00 362.00
C 323.85 361.50 327.90 363.08 330.00 361.00
C 326.58 359.02 318.81 358.89 318.00 364.00
C 316.16 360.22 317.41 354.65 314.00 352.00
C 311.25 357.89 312.07 365.26 310.00 371.00
C 307.07 360.34 307.62 348.74 305.00 338.00 Z"/>
</g>
<g fill="None" fill-opacity="0.0" stroke="#CADFB7" stroke-opacity="1.00" stroke-width="0.3"><path d="
M 1002.00 368.00 
C 999.34 358.29 1000.78 346.44 996.00 338.00
C 994.42 345.26 992.79 352.55 992.00 360.00
C 989.19 359.47 990.06 354.65 987.00 355.00
C 986.16 361.09 979.55 359.22 976.00 361.00
C 979.15 362.78 986.18 363.14 988.00 359.00
C 989.79 361.48 988.98 365.52 992.00 367.00
C 994.40 362.38 993.64 355.37 997.00 351.00
C 1000.20 360.81 996.69 373.45 1002.00 382.00
C 1004.65 375.79 1003.91 367.13 1007.00 361.00
C 1009.21 362.90 1007.86 367.84 1011.00 368.00
C 1011.20 360.94 1017.59 362.59 1022.00 361.00
C 1018.85 359.22 1011.82 358.86 1010.00 363.00
C 1008.76 359.39 1008.88 354.50 1006.00 352.00
C 1002.93 356.35 1005.51 363.75 1002.00 368.00 Z"/>
</g>
<g fill="None" fill-opacity="0.0" stroke="#A8BEC0" stroke-opacity="1.00" stroke-width="0.3"><path d="
M 498.00 360.00 
C 498.27 360.18 498.67 360.83 499.00 361.00
C 502.71 362.70 500.33 367.80 501.00 371.00
C 506.77 368.41 509.87 363.32 507.00 357.00
C 503.81 368.02 497.99 355.59 506.75 351.75 C 512.32 346.62 520.06 346.44 527.00 345.00
C 527.95 352.93 525.89 360.15 523.00 367.00
C 529.16 361.05 529.35 351.47 529.00 343.00
C 516.48 343.25 502.93 348.95 498.00 360.00 Z"/>
</g>
<g fill="None" fill-opacity="0.0" stroke="#B0CEA2" stroke-opacity="1.00" stroke-width="0.3"><path d="
M 889.00 355.00 
C 891.62 344.97 879.86 348.56 874.00 348.00 C 867.91 348.73 855.95 344.68 859.00 355.00
C 862.33 355.00 865.67 355.00 869.00 355.00
C 869.00 358.33 869.00 361.67 869.00 365.00
C 872.00 365.00 875.00 365.00 878.00 365.00
C 875.52 356.49 881.22 353.10 889.00 355.00 Z"/>
</g>
<g fill="None" fill-opacity="0.0" stroke="#9AB4B4" stroke-opacity="1.00" stroke-width="0.3"><path d="
M 523.00 351.00 
C 520.14 350.98 518.87 354.21 516.75 355.73 C 513.47 359.00 516.64 350.75 513.00 352.00
C 513.09 355.42 513.18 358.92 512.00 362.00
C 515.97 358.89 519.81 354.98 523.00 351.00 Z"/>
</g>
<g fill="None" fill-opacity="0.0" stroke="#92ADBD" stroke-opacity="1.00" stroke-width="0.3"><path d="
M 396.00 353.00 
C 394.28 355.54 394.44 361.39 396.00 364.00
C 397.53 360.79 397.60 356.21 396.00 353.00 Z"/>
</g>
<g fill="None" fill-opacity="0.0" stroke="#8FACBC" stroke-opacity="1.00" stroke-width="0.3"><path d="
M 399.00 364.00 
C 402.20 363.41 402.68 352.08 398.00 353.00
C 398.00 356.73 397.68 360.62 399.00 364.00 Z"/>
</g>
<g fill="None" fill-opacity="0.0" stroke="#7397AE" stroke-opacity="1.00" stroke-width="0.3"><path d="
M 297.00 420.00 
C 301.60 418.66 303.02 411.12 308.30 408.30 C 327.37 389.29 349.67 370.83 375.77 361.77 C 378.48 358.64 390.84 358.34 388.00 356.00
C 352.45 365.45 318.30 388.78 297.00 420.00 Z"/>
</g>
<g fill="None" fill-opacity="0.0" stroke="#98B6B9" stroke-opacity="1.00" stroke-width="0.3"><path d="
M 497.00 367.00 
C 495.15 363.39 490.62 362.42 487.00 362.00
C 486.37 368.39 491.20 374.69 498.00 374.00
C 496.85 369.85 489.98 368.31 489.00 364.00
C 492.05 364.27 493.89 369.65 497.00 367.00 Z"/>
</g>
<g fill="None" fill-opacity="0.0" stroke="#7898AC" stroke-opacity="1.00" stroke-width="0.3"><path d="
M 317.00 426.00 
C 344.92 394.42 382.11 371.77 424.00 370.00
C 430.09 367.71 438.16 369.63 445.00 369.00
C 394.06 362.57 344.60 388.63 313.00 428.00
C 314.82 428.40 315.54 426.55 317.00 426.00 Z"/>
</g>
<g fill="None" fill-opacity="0.0" stroke="#C5D6DA" stroke-opacity="1.00" stroke-width="0.3"><path d="
M 424.00 370.00 
C 431.33 370.00 438.67 370.00 446.00 370.00
C 445.79 369.96 445.30 369.22 445.00 369.00
C 438.16 369.63 430.09 367.71 424.00 370.00 Z"/>
</g>
<g fill="None" fill-opacity="0.0" stroke="#FEFEFE" stroke-opacity="1.00" stroke-width="0.3"><path d="
M 317.00 426.00 
C 313.62 433.34 323.55 441.66 319.98 450.98 C 316.71 478.49 272.13 478.36 269.00 451.00
C 260.86 449.06 247.43 455.28 242.93 447.07 C 238.33 431.86 235.05 415.78 230.00 401.00
C 227.91 425.48 227.66 450.42 226.00 475.00 C 222.95 485.29 229.83 501.74 220.03 507.97 C 210.96 502.76 213.40 488.71 208.99 480.01 C 206.51 469.99 203.84 459.94 201.00 450.00
C 187.22 454.41 183.42 442.97 181.00 433.00
C 180.31 441.60 177.06 449.50 175.98 457.98 C 173.03 464.22 175.82 476.62 167.08 477.92 C 158.21 466.50 154.85 450.70 150.00 437.00
C 100.00 437.00 50.00 437.00 0.00 437.00
L 0.00 768.00
L 1366.00 768.00
L 1366.00 437.00
C 1295.33 437.00 1224.67 437.00 1154.00 437.00
C 1151.41 446.89 1146.40 455.87 1143.77 465.77 C 1142.71 479.34 1128.33 481.36 1129.00 466.00 C 1127.30 455.49 1125.04 445.14 1122.00 435.00
C 1120.16 444.72 1115.52 453.87 1103.00 450.00
C 1099.74 460.12 1097.29 470.41 1094.78 480.78 C 1089.76 488.95 1092.92 504.42 1083.03 507.97 C 1074.12 501.49 1080.69 485.09 1077.00 475.00 C 1076.06 450.30 1075.73 424.91 1073.00 401.00
C 1070.17 412.73 1066.78 424.26 1063.98 435.98 C 1064.74 452.73 1049.46 453.85 1036.00 452.00
C 1032.59 468.22 1012.38 477.21 998.08 468.92 C 982.01 461.88 981.46 439.20 991.00 427.00
C 970.28 402.12 942.58 384.80 913.07 374.93 C 876.63 364.50 836.14 370.71 802.00 384.00
C 772.33 395.93 743.52 412.33 712.92 422.92 C 677.60 435.61 637.30 435.22 601.00 426.00
C 601.00 428.67 601.00 431.33 601.00 434.00
C 599.40 437.52 595.85 434.61 593.00 436.00
C 590.42 432.93 593.68 427.65 591.00 425.00
C 588.68 428.50 591.10 434.09 589.00 438.00
C 579.06 440.58 577.58 432.75 579.00 424.00
C 578.78 423.70 578.35 423.12 578.00 423.00
C 574.53 423.14 576.56 418.15 576.00 416.00
C 547.74 404.52 520.61 389.72 492.00 379.00
C 476.82 375.35 461.99 370.47 446.00 370.00
C 438.67 370.00 431.33 370.00 424.00 370.00
C 382.11 371.77 344.92 394.42 317.00 426.00 Z"/>
</g>
<g fill="None" fill-opacity="0.0" stroke="#8DB2B3" stroke-opacity="1.00" stroke-width="0.3"><path d="
M 492.00 379.00 
C 520.61 389.72 547.74 404.52 576.00 416.00
C 575.18 411.70 578.37 407.59 583.00 409.00
C 572.32 399.07 594.95 397.77 586.00 409.00
C 594.78 413.22 591.92 405.95 596.00 401.00
C 573.15 393.63 551.92 381.99 530.00 372.00
C 528.61 376.35 518.00 370.28 520.00 379.00
C 517.42 376.97 511.86 377.42 513.00 381.00
C 506.56 376.04 498.59 375.90 492.00 379.00 Z"/>
</g>
<g fill="None" fill-opacity="0.0" stroke="#C4D8CA" stroke-opacity="1.00" stroke-width="0.3"><path d="
M 679.00 410.00 
C 683.31 408.78 686.32 411.24 691.00 411.00
C 691.57 409.13 693.74 405.36 695.00 409.00
C 696.93 409.70 694.85 413.66 698.00 413.00
C 696.41 405.35 696.33 396.83 695.00 389.00
C 695.08 391.44 694.66 394.40 693.00 396.00
C 690.92 392.64 694.64 387.91 695.00 384.00
C 703.50 380.82 710.29 388.73 707.00 396.00
C 706.74 393.56 705.24 391.48 705.00 389.00
C 701.84 393.30 706.69 401.60 702.00 405.00
C 699.50 403.67 702.57 399.26 700.00 398.00
C 697.78 401.75 699.59 407.49 699.00 412.00
C 705.00 417.79 707.32 408.64 706.00 403.00
C 708.05 402.88 710.70 402.50 712.00 401.00
C 709.73 400.46 708.23 402.52 706.00 402.00
C 708.08 398.17 711.46 395.85 708.98 390.02 C 708.77 385.57 706.39 380.88 701.00 382.00
C 705.24 380.50 705.34 372.22 700.03 372.03 C 695.00 372.14 694.86 379.36 698.00 382.00
C 692.98 384.50 688.09 382.35 682.25 383.25 C 678.49 386.78 678.78 392.31 678.00 397.00
C 683.35 398.37 683.68 407.78 679.00 410.00
M 701.00 374.00 
C 705.69 384.11 690.71 376.94 701.00 374.00
M 691.00 385.00 
C 688.36 391.41 691.74 400.02 689.00 406.00
C 688.00 403.21 687.82 400.11 688.00 397.00
C 683.06 397.23 685.65 403.80 685.00 407.00
C 681.91 400.48 685.42 391.56 682.00 386.00
C 684.58 384.18 688.02 385.33 691.00 385.00
M 693.00 406.00 
C 691.50 404.36 691.28 399.57 693.00 398.00
C 694.50 399.64 694.72 404.43 693.00 406.00 Z"/>
</g>
<g fill="None" fill-opacity="0.0" stroke="#99BEAF" stroke-opacity="1.00" stroke-width="0.3"><path d="
M 712.00 401.00 
C 710.70 402.50 708.05 402.88 706.00 403.00
C 707.32 408.64 705.00 417.79 699.00 412.00
C 699.63 414.53 696.47 413.90 695.00 414.00
C 695.00 412.33 695.00 410.67 695.00 409.00
C 693.74 405.36 691.57 409.13 691.00 411.00
C 686.32 411.24 683.31 408.78 679.00 410.00
C 653.86 414.22 627.65 411.36 604.00 404.00
C 602.46 404.37 601.60 402.57 600.00 403.00
C 601.77 405.77 599.57 407.36 599.00 410.00
C 604.61 409.77 602.92 417.57 605.00 421.00
C 602.81 422.26 602.14 425.27 599.00 425.00
C 598.41 427.84 600.22 431.98 598.00 434.00
C 596.18 431.42 597.33 427.98 597.00 425.00
C 594.73 427.70 595.23 438.01 601.00 434.00
C 601.00 431.33 601.00 428.67 601.00 426.00
C 637.30 435.22 677.60 435.61 712.92 422.92 C 743.52 412.33 772.33 395.93 802.00 384.00
C 788.24 385.13 774.70 396.60 761.00 398.00
C 761.00 394.63 753.50 394.11 752.00 396.00
C 753.74 390.94 750.87 393.78 749.00 391.00
C 753.53 390.49 752.21 386.28 755.00 391.00
C 755.57 388.36 757.77 386.77 756.00 384.00
C 761.91 379.90 771.41 379.13 775.00 373.00
C 753.91 381.99 733.67 393.66 712.00 401.00 Z"/>
</g>
<g fill="None" fill-opacity="0.0" stroke="#F7F9F7" stroke-opacity="1.00" stroke-width="0.3"><path d="
M 701.00 374.00 
C 690.71 376.94 705.69 384.11 701.00 374.00 Z"/>
</g>
<g fill="None" fill-opacity="0.0" stroke="#AFC8B7" stroke-opacity="1.00" stroke-width="0.3"><path d="
M 689.00 375.00 
C 675.17 378.28 696.06 386.85 689.00 375.00
M 690.00 378.00 
C 686.31 385.51 682.82 373.98 690.00 378.00 Z"/>
</g>
<g fill="None" fill-opacity="0.0" stroke="#F0F6F1" stroke-opacity="1.00" stroke-width="0.3"><path d="
M 690.00 378.00 
C 682.82 373.98 686.31 385.51 690.00 378.00 Z"/>
</g>
<g fill="None" fill-opacity="0.0" stroke="#F5F9F4" stroke-opacity="1.00" stroke-width="0.3"><path d="
M 695.00 409.00 
C 695.00 410.67 695.00 412.33 695.00 414.00
C 696.47 413.90 699.63 414.53 699.00 412.00
C 699.59 407.49 697.78 401.75 700.00 398.00
C 702.57 399.26 699.50 403.67 702.00 405.00
C 706.69 401.60 701.84 393.30 705.00 389.00
C 705.24 391.48 706.74 393.56 707.00 396.00
C 710.29 388.73 703.50 380.82 695.00 384.00
C 694.64 387.91 690.92 392.64 693.00 396.00
C 694.66 394.40 695.08 391.44 695.00 389.00
C 696.33 396.83 696.41 405.35 698.00 413.00
C 694.85 413.66 696.93 409.70 695.00 409.00 Z"/>
</g>
<g fill="None" fill-opacity="0.0" stroke="#FCFDFB" stroke-opacity="1.00" stroke-width="0.3"><path d="
M 691.00 385.00 
C 688.02 385.33 684.58 384.18 682.00 386.00
C 685.42 391.56 681.91 400.48 685.00 407.00
C 685.65 403.80 683.06 397.23 688.00 397.00
C 687.82 400.11 688.00 403.21 689.00 406.00
C 691.74 400.02 688.36 391.41 691.00 385.00 Z"/>
</g>
<g fill="None" fill-opacity="0.0" stroke="#FBFCFC" stroke-opacity="1.00" stroke-width="0.3"><path d="
M 693.00 406.00 
C 694.72 404.43 694.50 399.64 693.00 398.00
C 691.28 399.57 691.50 404.36 693.00 406.00 Z"/>
</g>
<g fill="None" fill-opacity="0.0" stroke="#D7E5E2" stroke-opacity="1.00" stroke-width="0.3"><path d="
M 576.00 416.00 
C 576.56 418.15 574.53 423.14 578.00 423.00
C 578.41 422.17 578.97 421.13 580.00 421.00
C 582.71 425.83 578.62 433.44 583.00 437.00
C 576.49 437.17 582.51 426.94 579.00 424.00
C 577.58 432.75 579.06 440.58 589.00 438.00
C 591.10 434.09 588.68 428.50 591.00 425.00
C 593.68 427.65 590.42 432.93 593.00 436.00
C 595.85 434.61 599.40 437.52 601.00 434.00
C 595.23 438.01 594.73 427.70 597.00 425.00
C 597.33 427.98 596.18 431.42 598.00 434.00
C 600.22 431.98 598.41 427.84 599.00 425.00
C 602.14 425.27 602.81 422.26 605.00 421.00
C 602.92 417.57 604.61 409.77 599.00 410.00
C 599.57 407.36 601.77 405.77 600.00 403.00
C 601.60 402.57 602.46 404.37 604.00 404.00
C 602.26 401.55 598.56 402.06 596.00 401.00
C 591.92 405.95 594.78 413.22 586.00 409.00
C 594.95 397.77 572.32 399.07 583.00 409.00
C 578.37 407.59 575.18 411.70 576.00 416.00
M 586.00 402.00 
C 587.38 411.71 577.06 402.04 586.00 402.00
M 598.00 404.00 
C 601.52 410.75 590.43 405.42 598.00 404.00
M 589.00 411.00 
C 587.35 413.40 586.43 416.40 587.00 420.00
C 580.56 421.65 581.95 409.97 578.00 415.00
C 577.27 408.77 585.32 411.64 589.00 411.00
M 601.00 412.00 
C 597.71 415.17 600.47 419.47 600.00 424.00
C 591.51 425.25 592.72 417.18 593.00 411.00
C 595.72 411.17 598.67 410.39 601.00 412.00
M 589.00 421.00 
C 589.00 426.00 589.00 431.00 589.00 436.00
C 587.40 432.07 587.30 424.86 589.00 421.00
M 585.00 424.00 
C 585.00 428.00 585.00 432.00 585.00 436.00
C 583.43 433.06 583.29 426.87 585.00 424.00 Z"/>
</g>
<g fill="None" fill-opacity="0.0" stroke="#8FB2AB" stroke-opacity="1.00" stroke-width="0.3"><path d="
M 586.00 402.00 
C 577.06 402.04 587.38 411.71 586.00 402.00 Z"/>
</g>
<g fill="None" fill-opacity="0.0" stroke="#89ACA3" stroke-opacity="1.00" stroke-width="0.3"><path d="
M 598.00 404.00 
C 590.43 405.42 601.52 410.75 598.00 404.00 Z"/>
</g>
<g fill="None" fill-opacity="0.0" stroke="#8BAEA8" stroke-opacity="1.00" stroke-width="0.3"><path d="
M 589.00 411.00 
C 585.32 411.64 577.27 408.77 578.00 415.00
C 581.95 409.97 580.56 421.65 587.00 420.00
C 586.43 416.40 587.35 413.40 589.00 411.00 Z"/>
</g>
<g fill="None" fill-opacity="0.0" stroke="#8BB0A8" stroke-opacity="1.00" stroke-width="0.3"><path d="
M 601.00 412.00 
C 598.67 410.39 595.72 411.17 593.00 411.00
C 592.72 417.18 591.51 425.25 600.00 424.00
C 600.47 419.47 597.71 415.17 601.00 412.00 Z"/>
</g>
<g fill="None" fill-opacity="0.0" stroke="#9FBDB6" stroke-opacity="1.00" stroke-width="0.3"><path d="
M 578.00 423.00 
C 578.35 423.12 578.78 423.70 579.00 424.00
C 582.51 426.94 576.49 437.17 583.00 437.00
C 578.62 433.44 582.71 425.83 580.00 421.00
C 578.97 421.13 578.41 422.17 578.00 423.00 Z"/>
</g>
<g fill="None" fill-opacity="0.0" stroke="#A3C0B8" stroke-opacity="1.00" stroke-width="0.3"><path d="
M 589.00 421.00 
C 587.30 424.86 587.40 432.07 589.00 436.00
C 589.00 431.00 589.00 426.00 589.00 421.00 Z"/>
</g>
<g fill="None" fill-opacity="0.0" stroke="#99B8AF" stroke-opacity="1.00" stroke-width="0.3"><path d="
M 585.00 424.00 
C 583.29 426.87 583.43 433.06 585.00 436.00
C 585.00 432.00 585.00 428.00 585.00 424.00 Z"/>
</g>
<g fill="#FEFEFE" fill-opacity="1.00" stroke="None">
<path d="
M 0.00 428.00 
C 48.33 428.00 96.67 428.00 145.00 428.00 C 161.89 424.33 159.91 446.14 166.00 456.00
C 170.03 447.63 170.90 437.32 173.00 428.00 C 174.61 421.90 176.84 401.91 185.77 412.23 C 187.56 422.03 190.80 431.30 193.00 441.00
C 213.90 435.04 211.48 460.19 216.00 473.00
C 219.59 442.14 219.65 409.52 222.00 378.00 C 217.28 364.50 233.62 362.70 232.98 376.02 C 237.84 393.89 242.71 411.72 247.32 429.68 C 246.59 443.13 258.17 443.24 269.00 442.00
C 270.10 428.64 283.77 418.60 297.00 420.00
C 318.30 388.78 352.45 365.45 388.00 356.00
C 388.53 354.40 390.75 355.28 392.00 355.00
C 389.94 351.14 388.72 344.90 391.00 341.00
C 393.13 343.43 391.47 347.82 392.00 351.00
C 394.50 349.67 391.43 345.26 394.00 344.00
C 395.40 351.70 390.03 360.26 395.00 367.00
C 397.31 364.18 397.80 364.60 401.00 366.00
C 404.57 358.73 399.11 349.71 402.00 343.00
C 404.08 345.10 402.50 349.15 403.00 352.00
C 407.69 343.60 401.17 336.99 392.00 340.00
C 398.07 338.04 391.71 334.64 395.75 330.75 C 400.46 327.46 404.39 335.09 400.00 338.00
C 406.53 337.65 406.47 345.30 406.00 350.00
C 437.40 347.65 469.49 348.34 498.00 360.00
C 502.93 348.95 516.48 343.25 529.00 343.00
C 529.35 351.47 529.16 361.05 523.00 367.00
C 525.89 360.15 527.95 352.93 527.00 345.00
C 520.06 346.44 512.32 346.62 506.75 351.75 C 497.99 355.59 503.81 368.02 507.00 357.00
C 509.87 363.32 506.77 368.41 501.00 371.00
C 500.33 367.80 502.71 362.70 499.00 361.00
C 499.00 362.33 499.00 363.67 499.00 365.00
C 494.61 362.70 490.35 360.03 485.00 361.00
C 484.45 368.66 490.48 377.03 499.00 375.00 C 505.69 373.89 515.02 376.77 520.00 370.00
C 515.04 372.25 509.85 373.84 504.00 373.00
C 504.59 367.62 510.76 367.58 515.00 368.00
C 512.36 366.10 507.69 368.23 510.00 363.00
C 515.55 367.18 523.53 368.49 530.00 372.00
C 551.92 381.99 573.15 393.63 596.00 401.00
C 598.56 402.06 602.26 401.55 604.00 404.00
C 627.65 411.36 653.86 414.22 679.00 410.00
C 683.68 407.78 683.35 398.37 678.00 397.00
C 678.78 392.31 678.49 386.78 682.25 383.25 C 688.09 382.35 692.98 384.50 698.00 382.00
C 694.86 379.36 695.00 372.14 700.03 372.03 C 705.34 372.22 705.24 380.50 701.00 382.00
C 706.39 380.88 708.77 385.57 708.98 390.02 C 711.46 395.85 708.08 398.17 706.00 402.00
C 708.23 402.52 709.73 400.46 712.00 401.00
C 733.67 393.66 753.91 381.99 775.00 373.00
C 795.08 363.63 815.97 356.89 837.22 351.22 C 844.12 348.71 856.50 352.74 858.00 344.00
C 861.00 344.00 864.00 344.00 867.00 344.00
C 860.76 329.10 886.22 329.08 880.00 344.00
C 883.33 344.00 886.67 344.00 890.00 344.00
C 893.27 354.40 909.61 349.79 918.22 354.78 C 953.87 365.62 988.64 388.16 1010.00 420.00
C 1022.74 419.26 1034.59 429.47 1036.00 442.00
C 1041.67 442.00 1047.33 442.00 1053.00 442.00
C 1057.48 422.51 1063.54 403.51 1067.99 383.99 C 1070.63 377.92 1071.65 358.33 1081.75 368.25 C 1083.25 403.23 1084.22 438.81 1087.00 473.00
C 1093.14 462.00 1088.07 436.63 1107.00 440.00 C 1118.80 436.85 1110.70 403.83 1126.75 411.25 C 1129.55 425.96 1133.73 440.17 1136.00 455.00
C 1144.94 447.62 1141.29 422.75 1160.00 428.00 C 1228.67 428.00 1297.33 428.00 1366.00 428.00
L 1366.00 0.00
L 0.00 0.00
L 0.00 428.00
M 305.00 338.00 
C 307.62 348.74 307.07 360.34 310.00 371.00
C 312.07 365.26 311.25 357.89 314.00 352.00
C 317.41 354.65 316.16 360.22 318.00 364.00
C 318.81 358.89 326.58 359.02 330.00 361.00
C 327.90 363.08 323.85 361.50 321.00 362.00
C 320.60 364.11 319.62 366.66 318.00 368.00
C 315.68 365.44 316.22 361.23 315.00 358.00
C 312.22 364.88 313.64 374.42 310.00 381.00
C 305.98 371.02 306.91 358.88 305.00 348.00
C 301.05 353.13 303.15 361.60 300.00 367.00
C 297.73 364.69 296.74 361.17 296.00 358.00
C 294.20 362.41 287.51 363.35 284.00 361.00
C 288.73 359.75 293.61 360.31 296.00 355.00
C 297.47 356.49 298.74 358.78 299.00 361.00
C 302.87 354.39 300.36 344.04 305.00 338.00
M 1002.00 368.00 
C 1005.51 363.75 1002.93 356.35 1006.00 352.00
C 1008.88 354.50 1008.76 359.39 1010.00 363.00
C 1011.82 358.86 1018.85 359.22 1022.00 361.00
C 1017.59 362.59 1011.20 360.94 1011.00 368.00
C 1007.86 367.84 1009.21 362.90 1007.00 361.00
C 1003.91 367.13 1004.65 375.79 1002.00 382.00
C 996.69 373.45 1000.20 360.81 997.00 351.00
C 993.64 355.37 994.40 362.38 992.00 367.00
C 988.98 365.52 989.79 361.48 988.00 359.00
C 986.18 363.14 979.15 362.78 976.00 361.00
C 979.55 359.22 986.16 361.09 987.00 355.00
C 990.06 354.65 989.19 359.47 992.00 360.00
C 992.79 352.55 994.42 345.26 996.00 338.00
C 1000.78 346.44 999.34 358.29 1002.00 368.00
M 523.00 351.00 
C 519.81 354.98 515.97 358.89 512.00 362.00
C 513.18 358.92 513.09 355.42 513.00 352.00
C 516.64 350.75 513.47 359.00 516.75 355.73 C 518.87 354.21 520.14 350.98 523.00 351.00
M 396.00 353.00 
C 397.60 356.21 397.53 360.79 396.00 364.00
C 394.44 361.39 394.28 355.54 396.00 353.00
M 399.00 364.00 
C 397.68 360.62 398.00 356.73 398.00 353.00
C 402.68 352.08 402.20 363.41 399.00 364.00
M 497.00 367.00 
C 493.89 369.65 492.05 364.27 489.00 364.00
C 489.98 368.31 496.85 369.85 498.00 374.00
C 491.20 374.69 486.37 368.39 487.00 362.00
C 490.62 362.42 495.15 363.39 497.00 367.00
M 689.00 375.00 
C 696.06 386.85 675.17 378.28 689.00 375.00 Z"/>
</g>
<g fill="#86AEBC" fill-opacity="1.00" stroke="None">
<path d="
M 388.00 356.00 
C 390.84 358.34 378.48 358.64 375.77 361.77 C 349.67 370.83 327.37 389.29 308.30 408.30 C 303.02 411.12 301.60 418.66 297.00 420.00
C 283.77 418.60 270.10 428.64 269.00 442.00
C 258.17 443.24 246.59 443.13 247.32 429.68 C 242.71 411.72 237.84 393.89 232.98 376.02 C 233.62 362.70 217.28 364.50 222.00 378.00 C 219.65 409.52 219.59 442.14 216.00 473.00
C 211.48 460.19 213.90 435.04 193.00 441.00
C 190.80 431.30 187.56 422.03 185.77 412.23 C 176.84 401.91 174.61 421.90 173.00 428.00 C 170.90 437.32 170.03 447.63 166.00 456.00
C 159.91 446.14 161.89 424.33 145.00 428.00 C 96.67 428.00 48.33 428.00 0.00 428.00
L 0.00 437.00
C 50.00 437.00 100.00 437.00 150.00 437.00
C 154.85 450.70 158.21 466.50 167.08 477.92 C 175.82 476.62 173.03 464.22 175.98 457.98 C 177.06 449.50 180.31 441.60 181.00 433.00
C 183.42 442.97 187.22 454.41 201.00 450.00
C 203.84 459.94 206.51 469.99 208.99 480.01 C 213.40 488.71 210.96 502.76 220.03 507.97 C 229.83 501.74 222.95 485.29 226.00 475.00 C 227.66 450.42 227.91 425.48 230.00 401.00
C 235.05 415.78 238.33 431.86 242.93 447.07 C 247.43 455.28 260.86 449.06 269.00 451.00
C 272.13 478.36 316.71 478.49 319.98 450.98 C 323.55 441.66 313.62 433.34 317.00 426.00
C 315.54 426.55 314.82 428.40 313.00 428.00
C 344.60 388.63 394.06 362.57 445.00 369.00
C 445.30 369.22 445.79 369.96 446.00 370.00
C 461.99 370.47 476.82 375.35 492.00 379.00
C 498.59 375.90 506.56 376.04 513.00 381.00
C 511.86 377.42 517.42 376.97 520.00 379.00
C 518.00 370.28 528.61 376.35 530.00 372.00
C 523.53 368.49 515.55 367.18 510.00 363.00
C 507.69 368.23 512.36 366.10 515.00 368.00
C 510.76 367.58 504.59 367.62 504.00 373.00
C 509.85 373.84 515.04 372.25 520.00 370.00
C 515.02 376.77 505.69 373.89 499.00 375.00 C 490.48 377.03 484.45 368.66 485.00 361.00
C 490.35 360.03 494.61 362.70 499.00 365.00
C 499.00 363.67 499.00 362.33 499.00 361.00
C 498.67 360.83 498.27 360.18 498.00 360.00
C 469.49 348.34 437.40 347.65 406.00 350.00
C 406.47 345.30 406.53 337.65 400.00 338.00
C 404.39 335.09 400.46 327.46 395.75 330.75 C 391.71 334.64 398.07 338.04 392.00 340.00
C 401.17 336.99 407.69 343.60 403.00 352.00
C 402.50 349.15 404.08 345.10 402.00 343.00
C 399.11 349.71 404.57 358.73 401.00 366.00
C 397.80 364.60 397.31 364.18 395.00 367.00
C 390.03 360.26 395.40 351.70 394.00 344.00
C 391.43 345.26 394.50 349.67 392.00 351.00
C 391.47 347.82 393.13 343.43 391.00 341.00
C 388.72 344.90 389.94 351.14 392.00 355.00
C 390.75 355.28 388.53 354.40 388.00 356.00
M 400.00 332.00 
C 400.49 340.46 391.46 330.70 400.00 332.00 Z"/>
</g>
<g fill="#F3F7F9" fill-opacity="1.00" stroke="None">
<path d="
M 400.00 332.00 
C 391.46 330.70 400.49 340.46 400.00 332.00 Z"/>
</g>
<g fill="#B6D5A4" fill-opacity="1.00" stroke="None">
<path d="
M 775.00 373.00 
C 771.41 379.13 761.91 379.90 756.00 384.00
C 757.77 386.77 755.57 388.36 755.00 391.00
C 752.21 386.28 753.53 390.49 749.00 391.00
C 750.87 393.78 753.74 390.94 752.00 396.00
C 753.50 394.11 761.00 394.63 761.00 398.00
C 774.70 396.60 788.24 385.13 802.00 384.00
C 836.14 370.71 876.63 364.50 913.07 374.93 C 942.58 384.80 970.28 402.12 991.00 427.00
C 981.46 439.20 982.01 461.88 998.08 468.92 C 1012.38 477.21 1032.59 468.22 1036.00 452.00
C 1049.46 453.85 1064.74 452.73 1063.98 435.98 C 1066.78 424.26 1070.17 412.73 1073.00 401.00
C 1075.73 424.91 1076.06 450.30 1077.00 475.00 C 1080.69 485.09 1074.12 501.49 1083.03 507.97 C 1092.92 504.42 1089.76 488.95 1094.78 480.78 C 1097.29 470.41 1099.74 460.12 1103.00 450.00
C 1115.52 453.87 1120.16 444.72 1122.00 435.00
C 1125.04 445.14 1127.30 455.49 1129.00 466.00 C 1128.33 481.36 1142.71 479.34 1143.77 465.77 C 1146.40 455.87 1151.41 446.89 1154.00 437.00
C 1224.67 437.00 1295.33 437.00 1366.00 437.00
L 1366.00 428.00
C 1297.33 428.00 1228.67 428.00 1160.00 428.00 C 1141.29 422.75 1144.94 447.62 1136.00 455.00
C 1133.73 440.17 1129.55 425.96 1126.75 411.25 C 1110.70 403.83 1118.80 436.85 1107.00 440.00 C 1088.07 436.63 1093.14 462.00 1087.00 473.00
C 1084.22 438.81 1083.25 403.23 1081.75 368.25 C 1071.65 358.33 1070.63 377.92 1067.99 383.99 C 1063.54 403.51 1057.48 422.51 1053.00 442.00
C 1047.33 442.00 1041.67 442.00 1036.00 442.00
C 1034.59 429.47 1022.74 419.26 1010.00 420.00
C 988.64 388.16 953.87 365.62 918.22 354.78 C 909.61 349.79 893.27 354.40 890.00 344.00
C 886.67 344.00 883.33 344.00 880.00 344.00
C 886.22 329.08 860.76 329.10 867.00 344.00
C 864.00 344.00 861.00 344.00 858.00 344.00
C 856.50 352.74 844.12 348.71 837.22 351.22 C 815.97 356.89 795.08 363.63 775.00 373.00
M 878.00 335.00 
C 878.00 338.67 878.00 342.33 878.00 346.00
C 891.56 339.66 895.08 361.74 880.00 357.00
C 882.85 366.28 875.80 368.62 868.00 367.00
C 868.00 363.33 868.00 359.67 868.00 356.00
C 852.89 361.31 855.26 340.64 869.00 346.00
C 869.00 342.33 869.00 338.67 869.00 335.00
C 872.00 335.00 875.00 335.00 878.00 335.00 Z"/>
</g>
<g fill="#F4F8F0" fill-opacity="1.00" stroke="None">
<path d="
M 878.00 335.00 
C 875.00 335.00 872.00 335.00 869.00 335.00
C 869.00 338.67 869.00 342.33 869.00 346.00
C 855.26 340.64 852.89 361.31 868.00 356.00
C 868.00 359.67 868.00 363.33 868.00 367.00
C 875.80 368.62 882.85 366.28 880.00 357.00
C 895.08 361.74 891.56 339.66 878.00 346.00
C 878.00 342.33 878.00 338.67 878.00 335.00
M 889.00 355.00 
C 881.22 353.10 875.52 356.49 878.00 365.00
C 875.00 365.00 872.00 365.00 869.00 365.00
C 869.00 361.67 869.00 358.33 869.00 355.00
C 865.67 355.00 862.33 355.00 859.00 355.00
C 855.95 344.68 867.91 348.73 874.00 348.00 C 879.86 348.56 891.62 344.97 889.00 355.00 Z"/>
</g>
<g fill="#8EA8BC" fill-opacity="1.00" stroke="None">
<path d="
M 305.00 338.00 
C 300.36 344.04 302.87 354.39 299.00 361.00
C 298.74 358.78 297.47 356.49 296.00 355.00
C 293.61 360.31 288.73 359.75 284.00 361.00
C 287.51 363.35 294.20 362.41 296.00 358.00
C 296.74 361.17 297.73 364.69 300.00 367.00
C 303.15 361.60 301.05 353.13 305.00 348.00
C 306.91 358.88 305.98 371.02 310.00 381.00
C 313.64 374.42 312.22 364.88 315.00 358.00
C 316.22 361.23 315.68 365.44 318.00 368.00
C 319.62 366.66 320.60 364.11 321.00 362.00
C 323.85 361.50 327.90 363.08 330.00 361.00
C 326.58 359.02 318.81 358.89 318.00 364.00
C 316.16 360.22 317.41 354.65 314.00 352.00
C 311.25 357.89 312.07 365.26 310.00 371.00
C 307.07 360.34 307.62 348.74 305.00 338.00 Z"/>
</g>
<g fill="#CADFB7" fill-opacity="1.00" stroke="None">
<path d="
M 1002.00 368.00 
C 999.34 358.29 1000.78 346.44 996.00 338.00
C 994.42 345.26 992.79 352.55 992.00 360.00
C 989.19 359.47 990.06 354.65 987.00 355.00
C 986.16 361.09 979.55 359.22 976.00 361.00
C 979.15 362.78 986.18 363.14 988.00 359.00
C 989.79 361.48 988.98 365.52 992.00 367.00
C 994.40 362.38 993.64 355.37 997.00 351.00
C 1000.20 360.81 996.69 373.45 1002.00 382.00
C 1004.65 375.79 1003.91 367.13 1007.00 361.00
C 1009.21 362.90 1007.86 367.84 1011.00 368.00
C 1011.20 360.94 1017.59 362.59 1022.00 361.00
C 1018.85 359.22 1011.82 358.86 1010.00 363.00
C 1008.76 359.39 1008.88 354.50 1006.00 352.00
C 1002.93 356.35 1005.51 363.75 1002.00 368.00 Z"/>
</g>
<g fill="#A8BEC0" fill-opacity="1.00" stroke="None">
<path d="
M 498.00 360.00 
C 498.27 360.18 498.67 360.83 499.00 361.00
C 502.71 362.70 500.33 367.80 501.00 371.00
C 506.77 368.41 509.87 363.32 507.00 357.00
C 503.81 368.02 497.99 355.59 506.75 351.75 C 512.32 346.62 520.06 346.44 527.00 345.00
C 527.95 352.93 525.89 360.15 523.00 367.00
C 529.16 361.05 529.35 351.47 529.00 343.00
C 516.48 343.25 502.93 348.95 498.00 360.00 Z"/>
</g>
<g fill="#B0CEA2" fill-opacity="1.00" stroke="None">
<path d="
M 889.00 355.00 
C 891.62 344.97 879.86 348.56 874.00 348.00 C 867.91 348.73 855.95 344.68 859.00 355.00
C 862.33 355.00 865.67 355.00 869.00 355.00
C 869.00 358.33 869.00 361.67 869.00 365.00
C 872.00 365.00 875.00 365.00 878.00 365.00
C 875.52 356.49 881.22 353.10 889.00 355.00 Z"/>
</g>
<g fill="#9AB4B4" fill-opacity="1.00" stroke="None">
<path d="
M 523.00 351.00 
C 520.14 350.98 518.87 354.21 516.75 355.73 C 513.47 359.00 516.64 350.75 513.00 352.00
C 513.09 355.42 513.18 358.92 512.00 362.00
C 515.97 358.89 519.81 354.98 523.00 351.00 Z"/>
</g>
<g fill="#92ADBD" fill-opacity="1.00" stroke="None">
<path d="
M 396.00 353.00 
C 394.28 355.54 394.44 361.39 396.00 364.00
C 397.53 360.79 397.60 356.21 396.00 353.00 Z"/>
</g>
<g fill="#8FACBC" fill-opacity="1.00" stroke="None">
<path d="
M 399.00 364.00 
C 402.20 363.41 402.68 352.08 398.00 353.00
C 398.00 356.73 397.68 360.62 399.00 364.00 Z"/>
</g>
<g fill="#7397AE" fill-opacity="1.00" stroke="None">
<path d="
M 297.00 420.00 
C 301.60 418.66 303.02 411.12 308.30 408.30 C 327.37 389.29 349.67 370.83 375.77 361.77 C 378.48 358.64 390.84 358.34 388.00 356.00
C 352.45 365.45 318.30 388.78 297.00 420.00 Z"/>
</g>
<g fill="#98B6B9" fill-opacity="1.00" stroke="None">
<path d="
M 497.00 367.00 
C 495.15 363.39 490.62 362.42 487.00 362.00
C 486.37 368.39 491.20 374.69 498.00 374.00
C 496.85 369.85 489.98 368.31 489.00 364.00
C 492.05 364.27 493.89 369.65 497.00 367.00 Z"/>
</g>
<g fill="#7898AC" fill-opacity="1.00" stroke="None">
<path d="
M 317.00 426.00 
C 344.92 394.42 382.11 371.77 424.00 370.00
C 430.09 367.71 438.16 369.63 445.00 369.00
C 394.06 362.57 344.60 388.63 313.00 428.00
C 314.82 428.40 315.54 426.55 317.00 426.00 Z"/>
</g>
<g fill="#C5D6DA" fill-opacity="1.00" stroke="None">
<path d="
M 424.00 370.00 
C 431.33 370.00 438.67 370.00 446.00 370.00
C 445.79 369.96 445.30 369.22 445.00 369.00
C 438.16 369.63 430.09 367.71 424.00 370.00 Z"/>
</g>
<g fill="#FEFEFE" fill-opacity="1.00" stroke="None">
<path d="
M 317.00 426.00 
C 313.62 433.34 323.55 441.66 319.98 450.98 C 316.71 478.49 272.13 478.36 269.00 451.00
C 260.86 449.06 247.43 455.28 242.93 447.07 C 238.33 431.86 235.05 415.78 230.00 401.00
C 227.91 425.48 227.66 450.42 226.00 475.00 C 222.95 485.29 229.83 501.74 220.03 507.97 C 210.96 502.76 213.40 488.71 208.99 480.01 C 206.51 469.99 203.84 459.94 201.00 450.00
C 187.22 454.41 183.42 442.97 181.00 433.00
C 180.31 441.60 177.06 449.50 175.98 457.98 C 173.03 464.22 175.82 476.62 167.08 477.92 C 158.21 466.50 154.85 450.70 150.00 437.00
C 100.00 437.00 50.00 437.00 0.00 437.00
L 0.00 768.00
L 1366.00 768.00
L 1366.00 437.00
C 1295.33 437.00 1224.67 437.00 1154.00 437.00
C 1151.41 446.89 1146.40 455.87 1143.77 465.77 C 1142.71 479.34 1128.33 481.36 1129.00 466.00 C 1127.30 455.49 1125.04 445.14 1122.00 435.00
C 1120.16 444.72 1115.52 453.87 1103.00 450.00
C 1099.74 460.12 1097.29 470.41 1094.78 480.78 C 1089.76 488.95 1092.92 504.42 1083.03 507.97 C 1074.12 501.49 1080.69 485.09 1077.00 475.00 C 1076.06 450.30 1075.73 424.91 1073.00 401.00
C 1070.17 412.73 1066.78 424.26 1063.98 435.98 C 1064.74 452.73 1049.46 453.85 1036.00 452.00
C 1032.59 468.22 1012.38 477.21 998.08 468.92 C 982.01 461.88 981.46 439.20 991.00 427.00
C 970.28 402.12 942.58 384.80 913.07 374.93 C 876.63 364.50 836.14 370.71 802.00 384.00
C 772.33 395.93 743.52 412.33 712.92 422.92 C 677.60 435.61 637.30 435.22 601.00 426.00
C 601.00 428.67 601.00 431.33 601.00 434.00
C 599.40 437.52 595.85 434.61 593.00 436.00
C 590.42 432.93 593.68 427.65 591.00 425.00
C 588.68 428.50 591.10 434.09 589.00 438.00
C 579.06 440.58 577.58 432.75 579.00 424.00
C 578.78 423.70 578.35 423.12 578.00 423.00
C 574.53 423.14 576.56 418.15 576.00 416.00
C 547.74 404.52 520.61 389.72 492.00 379.00
C 476.82 375.35 461.99 370.47 446.00 370.00
C 438.67 370.00 431.33 370.00 424.00 370.00
C 382.11 371.77 344.92 394.42 317.00 426.00 Z"/>
</g>
<g fill="#8DB2B3" fill-opacity="1.00" stroke="None">
<path d="
M 492.00 379.00 
C 520.61 389.72 547.74 404.52 576.00 416.00
C 575.18 411.70 578.37 407.59 583.00 409.00
C 572.32 399.07 594.95 397.77 586.00 409.00
C 594.78 413.22 591.92 405.95 596.00 401.00
C 573.15 393.63 551.92 381.99 530.00 372.00
C 528.61 376.35 518.00 370.28 520.00 379.00
C 517.42 376.97 511.86 377.42 513.00 381.00
C 506.56 376.04 498.59 375.90 492.00 379.00 Z"/>
</g>
<g fill="#C4D8CA" fill-opacity="1.00" stroke="None">
<path d="
M 679.00 410.00 
C 683.31 408.78 686.32 411.24 691.00 411.00
C 691.57 409.13 693.74 405.36 695.00 409.00
C 696.93 409.70 694.85 413.66 698.00 413.00
C 696.41 405.35 696.33 396.83 695.00 389.00
C 695.08 391.44 694.66 394.40 693.00 396.00
C 690.92 392.64 694.64 387.91 695.00 384.00
C 703.50 380.82 710.29 388.73 707.00 396.00
C 706.74 393.56 705.24 391.48 705.00 389.00
C 701.84 393.30 706.69 401.60 702.00 405.00
C 699.50 403.67 702.57 399.26 700.00 398.00
C 697.78 401.75 699.59 407.49 699.00 412.00
C 705.00 417.79 707.32 408.64 706.00 403.00
C 708.05 402.88 710.70 402.50 712.00 401.00
C 709.73 400.46 708.23 402.52 706.00 402.00
C 708.08 398.17 711.46 395.85 708.98 390.02 C 708.77 385.57 706.39 380.88 701.00 382.00
C 705.24 380.50 705.34 372.22 700.03 372.03 C 695.00 372.14 694.86 379.36 698.00 382.00
C 692.98 384.50 688.09 382.35 682.25 383.25 C 678.49 386.78 678.78 392.31 678.00 397.00
C 683.35 398.37 683.68 407.78 679.00 410.00
M 701.00 374.00 
C 705.69 384.11 690.71 376.94 701.00 374.00
M 691.00 385.00 
C 688.36 391.41 691.74 400.02 689.00 406.00
C 688.00 403.21 687.82 400.11 688.00 397.00
C 683.06 397.23 685.65 403.80 685.00 407.00
C 681.91 400.48 685.42 391.56 682.00 386.00
C 684.58 384.18 688.02 385.33 691.00 385.00
M 693.00 406.00 
C 691.50 404.36 691.28 399.57 693.00 398.00
C 694.50 399.64 694.72 404.43 693.00 406.00 Z"/>
</g>
<g fill="#99BEAF" fill-opacity="1.00" stroke="None">
<path d="
M 712.00 401.00 
C 710.70 402.50 708.05 402.88 706.00 403.00
C 707.32 408.64 705.00 417.79 699.00 412.00
C 699.63 414.53 696.47 413.90 695.00 414.00
C 695.00 412.33 695.00 410.67 695.00 409.00
C 693.74 405.36 691.57 409.13 691.00 411.00
C 686.32 411.24 683.31 408.78 679.00 410.00
C 653.86 414.22 627.65 411.36 604.00 404.00
C 602.46 404.37 601.60 402.57 600.00 403.00
C 601.77 405.77 599.57 407.36 599.00 410.00
C 604.61 409.77 602.92 417.57 605.00 421.00
C 602.81 422.26 602.14 425.27 599.00 425.00
C 598.41 427.84 600.22 431.98 598.00 434.00
C 596.18 431.42 597.33 427.98 597.00 425.00
C 594.73 427.70 595.23 438.01 601.00 434.00
C 601.00 431.33 601.00 428.67 601.00 426.00
C 637.30 435.22 677.60 435.61 712.92 422.92 C 743.52 412.33 772.33 395.93 802.00 384.00
C 788.24 385.13 774.70 396.60 761.00 398.00
C 761.00 394.63 753.50 394.11 752.00 396.00
C 753.74 390.94 750.87 393.78 749.00 391.00
C 753.53 390.49 752.21 386.28 755.00 391.00
C 755.57 388.36 757.77 386.77 756.00 384.00
C 761.91 379.90 771.41 379.13 775.00 373.00
C 753.91 381.99 733.67 393.66 712.00 401.00 Z"/>
</g>
<g fill="#F7F9F7" fill-opacity="1.00" stroke="None">
<path d="
M 701.00 374.00 
C 690.71 376.94 705.69 384.11 701.00 374.00 Z"/>
</g>
<g fill="#AFC8B7" fill-opacity="1.00" stroke="None">
<path d="
M 689.00 375.00 
C 675.17 378.28 696.06 386.85 689.00 375.00
M 690.00 378.00 
C 686.31 385.51 682.82 373.98 690.00 378.00 Z"/>
</g>
<g fill="#F0F6F1" fill-opacity="1.00" stroke="None">
<path d="
M 690.00 378.00 
C 682.82 373.98 686.31 385.51 690.00 378.00 Z"/>
</g>
<g fill="#F5F9F4" fill-opacity="1.00" stroke="None">
<path d="
M 695.00 409.00 
C 695.00 410.67 695.00 412.33 695.00 414.00
C 696.47 413.90 699.63 414.53 699.00 412.00
C 699.59 407.49 697.78 401.75 700.00 398.00
C 702.57 399.26 699.50 403.67 702.00 405.00
C 706.69 401.60 701.84 393.30 705.00 389.00
C 705.24 391.48 706.74 393.56 707.00 396.00
C 710.29 388.73 703.50 380.82 695.00 384.00
C 694.64 387.91 690.92 392.64 693.00 396.00
C 694.66 394.40 695.08 391.44 695.00 389.00
C 696.33 396.83 696.41 405.35 698.00 413.00
C 694.85 413.66 696.93 409.70 695.00 409.00 Z"/>
</g>
<g fill="#FCFDFB" fill-opacity="1.00" stroke="None">
<path d="
M 691.00 385.00 
C 688.02 385.33 684.58 384.18 682.00 386.00
C 685.42 391.56 681.91 400.48 685.00 407.00
C 685.65 403.80 683.06 397.23 688.00 397.00
C 687.82 400.11 688.00 403.21 689.00 406.00
C 691.74 400.02 688.36 391.41 691.00 385.00 Z"/>
</g>
<g fill="#FBFCFC" fill-opacity="1.00" stroke="None">
<path d="
M 693.00 406.00 
C 694.72 404.43 694.50 399.64 693.00 398.00
C 691.28 399.57 691.50 404.36 693.00 406.00 Z"/>
</g>
<g fill="#D7E5E2" fill-opacity="1.00" stroke="None">
<path d="
M 576.00 416.00 
C 576.56 418.15 574.53 423.14 578.00 423.00
C 578.41 422.17 578.97 421.13 580.00 421.00
C 582.71 425.83 578.62 433.44 583.00 437.00
C 576.49 437.17 582.51 426.94 579.00 424.00
C 577.58 432.75 579.06 440.58 589.00 438.00
C 591.10 434.09 588.68 428.50 591.00 425.00
C 593.68 427.65 590.42 432.93 593.00 436.00
C 595.85 434.61 599.40 437.52 601.00 434.00
C 595.23 438.01 594.73 427.70 597.00 425.00
C 597.33 427.98 596.18 431.42 598.00 434.00
C 600.22 431.98 598.41 427.84 599.00 425.00
C 602.14 425.27 602.81 422.26 605.00 421.00
C 602.92 417.57 604.61 409.77 599.00 410.00
C 599.57 407.36 601.77 405.77 600.00 403.00
C 601.60 402.57 602.46 404.37 604.00 404.00
C 602.26 401.55 598.56 402.06 596.00 401.00
C 591.92 405.95 594.78 413.22 586.00 409.00
C 594.95 397.77 572.32 399.07 583.00 409.00
C 578.37 407.59 575.18 411.70 576.00 416.00
M 586.00 402.00 
C 587.38 411.71 577.06 402.04 586.00 402.00
M 598.00 404.00 
C 601.52 410.75 590.43 405.42 598.00 404.00
M 589.00 411.00 
C 587.35 413.40 586.43 416.40 587.00 420.00
C 580.56 421.65 581.95 409.97 578.00 415.00
C 577.27 408.77 585.32 411.64 589.00 411.00
M 601.00 412.00 
C 597.71 415.17 600.47 419.47 600.00 424.00
C 591.51 425.25 592.72 417.18 593.00 411.00
C 595.72 411.17 598.67 410.39 601.00 412.00
M 589.00 421.00 
C 589.00 426.00 589.00 431.00 589.00 436.00
C 587.40 432.07 587.30 424.86 589.00 421.00
M 585.00 424.00 
C 585.00 428.00 585.00 432.00 585.00 436.00
C 583.43 433.06 583.29 426.87 585.00 424.00 Z"/>
</g>
<g fill="#8FB2AB" fill-opacity="1.00" stroke="None">
<path d="
M 586.00 402.00 
C 577.06 402.04 587.38 411.71 586.00 402.00 Z"/>
</g>
<g fill="#89ACA3" fill-opacity="1.00" stroke="None">
<path d="
M 598.00 404.00 
C 590.43 405.42 601.52 410.75 598.00 404.00 Z"/>
</g>
<g fill="#8BAEA8" fill-opacity="1.00" stroke="None">
<path d="
M 589.00 411.00 
C 585.32 411.64 577.27 408.77 578.00 415.00
C 581.95 409.97 580.56 421.65 587.00 420.00
C 586.43 416.40 587.35 413.40 589.00 411.00 Z"/>
</g>
<g fill="#8BB0A8" fill-opacity="1.00" stroke="None">
<path d="
M 601.00 412.00 
C 598.67 410.39 595.72 411.17 593.00 411.00
C 592.72 417.18 591.51 425.25 600.00 424.00
C 600.47 419.47 597.71 415.17 601.00 412.00 Z"/>
</g>
<g fill="#9FBDB6" fill-opacity="1.00" stroke="None">
<path d="
M 578.00 423.00 
C 578.35 423.12 578.78 423.70 579.00 424.00
C 582.51 426.94 576.49 437.17 583.00 437.00
C 578.62 433.44 582.71 425.83 580.00 421.00
C 578.97 421.13 578.41 422.17 578.00 423.00 Z"/>
</g>
<g fill="#A3C0B8" fill-opacity="1.00" stroke="None">
<path d="
M 589.00 421.00 
C 587.30 424.86 587.40 432.07 589.00 436.00
C 589.00 431.00 589.00 426.00 589.00 421.00 Z"/>
</g>
<g fill="#99B8AF" fill-opacity="1.00" stroke="None">
<path d="
M 585.00 424.00 
C 583.29 426.87 583.43 433.06 585.00 436.00
C 585.00 432.00 585.00 428.00 585.00 424.00 Z"/>
</g>
</svg>