<svg id="el5SzQiTF7g1" xmlns="http://www.w3.org/2000/svg" xmlns:xlink="http://www.w3.org/1999/xlink" viewBox="0 0 1366 768" shape-rendering="geometricPrecision" text-rendering="geometricPrecision" project-id="0aaba3e21e4e4df194f15c38780e07b0" export-id="1b61aad247474ac19d800db81fd2c761" cached="false"><g><path d="M0,428c48.33,0,96.67,0,145,0c16.89-3.67,14.91,18.14,21,28c4.03-8.37,4.9-18.68,7-28c1.61-6.1,3.84-26.09,12.77-15.77c1.79,9.8,5.03,19.07,7.23,28.77c20.9-5.96,18.48,19.19,23,32c3.59-30.86,3.65-63.48,6-95-4.72-13.5,11.62-15.3,10.98-1.98c4.86,17.87,9.73,35.7,14.34,53.66-.73,13.45,10.85,13.56,21.68,12.32c1.1-13.36,14.77-23.4,28-22c21.3-31.22,55.45-54.55,91-64c.53-1.6,2.75-.72,4-1-2.06-3.86-3.28-10.1-1-14c2.13,2.43.47,6.82,1,10c2.5-1.33-.57-5.74,2-7c1.4,7.7-3.97,16.26,1,23c2.31-2.82,2.8-2.4,6-1c3.57-7.27-1.89-16.29,1-23c2.08,2.1.5,6.15,1,9c4.69-8.4-1.83-15.01-11-12c6.07-1.96-.29-5.36,3.75-9.25c4.71-3.29,8.64,4.34,4.25,7.25c6.53-.35,6.47,7.3,6,12c31.4-2.35,63.49-1.66,92,10c4.93-11.05,18.48-16.75,31-17c.35,8.47.16,18.05-6,24c2.89-6.85,4.95-14.07,4-22-6.94,1.44-14.68,1.62-20.25,6.75-8.76,3.84-2.94,16.27.25,5.25c2.87,6.32-.23,11.41-6,14-.67-3.2,1.71-8.3-2-10c0,1.33,0,2.67,0,4-4.39-2.3-8.65-4.97-14-4-.55,7.66,5.48,16.03,14,14c6.69-1.11,16.02,1.77,21-5-4.96,2.25-10.15,3.84-16,3c.59-5.38,6.76-5.42,11-5-2.64-1.9-7.31.23-5-5c5.55,4.18,13.53,5.49,20,9c21.92,9.99,43.15,21.63,66,29c2.56,1.06,6.26.55,8,3c23.65,7.36,49.86,10.22,75,6c4.68-2.22,4.35-11.63-1-13c.78-4.69.49-10.22,4.25-13.75c5.84-.9,10.73,1.25,15.75-1.25-3.14-2.64-3-9.86,2.03-9.97c5.31.19,5.21,8.47.97,9.97c5.39-1.12,7.77,3.57,7.98,8.02c2.48,5.83-.9,8.15-2.98,11.98c2.23.52,3.73-1.54,6-1c21.67-7.34,41.91-19.01,63-28c20.08-9.37,40.97-16.11,62.22-21.78c6.9-2.51,19.28,1.52,20.78-7.22c3,0,6,0,9,0-6.24-14.9,19.22-14.92,13,0c3.33,0,6.67,0,10,0c3.27,10.4,19.61,5.79,28.22,10.78c35.65,10.84,70.42,33.38,91.78,65.22c12.74-.74,24.59,9.47,26,22c5.67,0,11.33,0,17,0c4.48-19.49,10.54-38.49,14.99-58.01c2.64-6.07,3.66-25.66,13.76-15.74c1.5,34.98,2.47,70.56,5.25,104.75c6.14-11,1.07-36.37,20-33c11.8-3.15,3.7-36.17,19.75-28.75c2.8,14.71,6.98,28.92,9.25,43.75c8.94-7.38,5.29-32.25,24-27c68.67,0,137.33,0,206,0v-428L0,0v428m305-90c2.62,10.74,2.07,22.34,5,33c2.07-5.74,1.25-13.11,4-19c3.41,2.65,2.16,8.22,4,12c.81-5.11,8.58-4.98,12-3-2.1,2.08-6.15.5-9,1-.4,2.11-1.38,4.66-3,6-2.32-2.56-1.78-6.77-3-10-2.78,6.88-1.36,16.42-5,23-4.02-9.98-3.09-22.12-5-33-3.95,5.13-1.85,13.6-5,19-2.27-2.31-3.26-5.83-4-9-1.8,4.41-8.49,5.35-12,3c4.73-1.25,9.61-.69,12-6c1.47,1.49,2.74,3.78,3,6c3.87-6.61,1.36-16.96,6-23m697,30c3.51-4.25.93-11.65,4-16c2.88,2.5,2.76,7.39,4,11c1.82-4.14,8.85-3.78,12-2-4.41,1.59-10.8-.06-11,7-3.14-.16-1.79-5.1-4-7-3.09,6.13-2.35,14.79-5,21-5.31-8.55-1.8-21.19-5-31-3.36,4.37-2.6,11.38-5,16-3.02-1.48-2.21-5.52-4-8-1.82,4.14-8.85,3.78-12,2c3.55-1.78,10.16.09,11-6c3.06-.35,2.19,4.47,5,5c.79-7.45,2.42-14.74,4-22c4.78,8.44,3.34,20.29,6,30M523,351c-3.19,3.98-7.03,7.89-11,11c1.18-3.08,1.09-6.58,1-10c3.64-1.25.47,7,3.75,3.73c2.12-1.52,3.39-4.75,6.25-4.73m-127,2c1.6,3.21,1.53,7.79,0,11-1.56-2.61-1.72-8.46,0-11m3,11c-1.32-3.38-1-7.27-1-11c4.68-.92,4.2,10.41,1,11m98,3c-3.11,2.65-4.95-2.73-8-3c.98,4.31,7.85,5.85,9,10-6.8.69-11.63-5.61-11-12c3.62.42,8.15,1.39,10,5m192,8c7.06,11.85-13.83,3.28,0,0Z" fill="none" fill-opacity="0" stroke="#fefefe" stroke-width="0.3"/></g><g><path d="M388,356c2.84,2.34-9.52,2.64-12.23,5.77-26.1,9.06-48.4,27.52-67.47,46.53-5.28,2.82-6.7,10.36-11.3,11.7-13.23-1.4-26.9,8.64-28,22-10.83,1.24-22.41,1.13-21.68-12.32-4.61-17.96-9.48-35.79-14.34-53.66.64-13.32-15.7-11.52-10.98,1.98-2.35,31.52-2.41,64.14-6,95-4.52-12.81-2.1-37.96-23-32-2.2-9.7-5.44-18.97-7.23-28.77-8.93-10.32-11.16,9.67-12.77,15.77-2.1,9.32-2.97,19.63-7,28-6.09-9.86-4.11-31.67-21-28-48.33,0-96.67,0-145,0v9c50,0,100,0,150,0c4.85,13.7,8.21,29.5,17.08,40.92c8.74-1.3,5.95-13.7,8.9-19.94c1.08-8.48,4.33-16.38,5.02-24.98c2.42,9.97,6.22,21.41,20,17c2.84,9.94,5.51,19.99,7.99,30.01c4.41,8.7,1.97,22.75,11.04,27.96c9.8-6.23,2.92-22.68,5.97-32.97c1.66-24.58,1.91-49.52,4-74c5.05,14.78,8.33,30.86,12.93,46.07c4.5,8.21,17.93,1.99,26.07,3.93c3.13,27.36,47.71,27.49,50.98-.02c3.57-9.32-6.36-17.64-2.98-24.98-1.46.55-2.18,2.4-4,2c31.6-39.37,81.06-65.43,132-59c.3.22.79.96,1,1c15.99.47,30.82,5.35,46,9c6.59-3.1,14.56-2.96,21,2-1.14-3.58,4.42-4.03,7-2-2-8.72,8.61-2.65,10-7-6.47-3.51-14.45-4.82-20-9-2.31,5.23,2.36,3.1,5,5-4.24-.42-10.41-.38-11,5c5.85.84,11.04-.75,16-3-4.98,6.77-14.31,3.89-21,5-8.52,2.03-14.55-6.34-14-14c5.35-.97,9.61,1.7,14,4c0-1.33,0-2.67,0-4-.33-.17-.73-.82-1-1-28.51-11.66-60.6-12.35-92-10c.47-4.7.53-12.35-6-12c4.39-2.91.46-10.54-4.25-7.25-4.04,3.89,2.32,7.29-3.75,9.25c9.17-3.01,15.69,3.6,11,12-.5-2.85,1.08-6.9-1-9-2.89,6.71,2.57,15.73-1,23-3.2-1.4-3.69-1.82-6,1-4.97-6.74.4-15.3-1-23-2.57,1.26.5,5.67-2,7-.53-3.18,1.13-7.57-1-10-2.28,3.9-1.06,10.14,1,14-1.25.28-3.47-.6-4,1m12-24c.49,8.46-8.54-1.3,0,0Z" fill="none" fill-opacity="0" stroke="#86aebc" stroke-width="0.3"/></g><g><path d="M400,332c-8.54-1.3.49,8.46,0,0Z" fill="none" fill-opacity="0" stroke="#f3f7f9" stroke-width="0.3"/></g><g><path d="M775,373c-3.59,6.13-13.09,6.9-19,11c1.77,2.77-.43,4.36-1,7-2.79-4.72-1.47-.51-6,0c1.87,2.78,4.74-.06,3,5c1.5-1.89,9-1.37,9,2c13.7-1.4,27.24-12.87,41-14c34.14-13.29,74.63-19.5,111.07-9.07C942.58,384.8,970.28,402.12,991,427c-9.54,12.2-8.99,34.88,7.08,41.92c14.3,8.29,34.51-.7,37.92-16.92c13.46,1.85,28.74.73,27.98-16.02c2.8-11.72,6.19-23.25,9.02-34.98c2.73,23.91,3.06,49.3,4,74c3.69,10.09-2.88,26.49,6.03,32.97c9.89-3.55,6.73-19.02,11.75-27.19c2.51-10.37,4.96-20.66,8.22-30.78c12.52,3.87,17.16-5.28,19-15c3.04,10.14,5.3,20.49,7,31-.67,15.36,13.71,13.34,14.77-.23c2.63-9.9,7.64-18.88,10.23-28.77c70.67,0,141.33,0,212,0v-9c-68.67,0-137.33,0-206,0-18.71-5.25-15.06,19.62-24,27-2.27-14.83-6.45-29.04-9.25-43.75-16.05-7.42-7.95,25.6-19.75,28.75-18.93-3.37-13.86,22-20,33-2.78-34.19-3.75-69.77-5.25-104.75-10.1-9.92-11.12,9.67-13.76,15.74-4.45,19.52-10.51,38.52-14.99,58.01-5.67,0-11.33,0-17,0-1.41-12.53-13.26-22.74-26-22-21.36-31.84-56.13-54.38-91.78-65.22-8.61-4.99-24.95-.38-28.22-10.78-3.33,0-6.67,0-10,0c6.22-14.92-19.24-14.9-13,0-3,0-6,0-9,0-1.5,8.74-13.88,4.71-20.78,7.22-21.25,5.67-42.14,12.41-62.22,21.78m103-38c0,3.67,0,7.33,0,11c13.56-6.34,17.08,15.74,2,11c2.85,9.28-4.2,11.62-12,10c0-3.67,0-7.33,0-11-15.11,5.31-12.74-15.36,1-10c0-3.67,0-7.33,0-11c3,0,6,0,9,0Z" fill="none" fill-opacity="0" stroke="#b6d5a4" stroke-width="0.3"/></g><g><path d="M878,335c-3,0-6,0-9,0c0,3.67,0,7.33,0,11-13.74-5.36-16.11,15.31-1,10c0,3.67,0,7.33,0,11c7.8,1.62,14.85-.72,12-10c15.08,4.74,11.56-17.34-2-11c0-3.67,0-7.33,0-11m11,20c-7.78-1.9-13.48,1.49-11,10-3,0-6,0-9,0c0-3.33,0-6.67,0-10-3.33,0-6.67,0-10,0-3.05-10.32,8.91-6.27,15-7c5.86.56,17.62-3.03,15,7Z" fill="none" fill-opacity="0" stroke="#f4f8f0" stroke-width="0.3"/></g><g><path d="M305,338c-4.64,6.04-2.13,16.39-6,23-.26-2.22-1.53-4.51-3-6-2.39,5.31-7.27,4.75-12,6c3.51,2.35,10.2,1.41,12-3c.74,3.17,1.73,6.69,4,9c3.15-5.4,1.05-13.87,5-19c1.91,10.88.98,23.02,5,33c3.64-6.58,2.22-16.12,5-23c1.22,3.23.68,7.44,3,10c1.62-1.34,2.6-3.89,3-6c2.85-.5,6.9,1.08,9-1-3.42-1.98-11.19-2.11-12,3-1.84-3.78-.59-9.35-4-12-2.75,5.89-1.93,13.26-4,19-2.93-10.66-2.38-22.26-5-33Z" fill="none" fill-opacity="0" stroke="#8ea8bc" stroke-width="0.3"/></g><g><path d="M1002,368c-2.66-9.71-1.22-21.56-6-30-1.58,7.26-3.21,14.55-4,22-2.81-.53-1.94-5.35-5-5-.84,6.09-7.45,4.22-11,6c3.15,1.78,10.18,2.14,12-2c1.79,2.48.98,6.52,4,8c2.4-4.62,1.64-11.63,5-16c3.2,9.81-.31,22.45,5,31c2.65-6.21,1.91-14.87,5-21c2.21,1.9.86,6.84,4,7c.2-7.06,6.59-5.41,11-7-3.15-1.78-10.18-2.14-12,2-1.24-3.61-1.12-8.5-4-11-3.07,4.35-.49,11.75-4,16Z" fill="none" fill-opacity="0" stroke="#cadfb7" stroke-width="0.3"/></g><g><path d="M498,360c.27.18.67.83,1,1c3.71,1.7,1.33,6.8,2,10c5.77-2.59,8.87-7.68,6-14-3.19,11.02-9.01-1.41-.25-5.25c5.57-5.13,13.31-5.31,20.25-6.75.95,7.93-1.11,15.15-4,22c6.16-5.95,6.35-15.53,6-24-12.52.25-26.07,5.95-31,17Z" fill="none" fill-opacity="0" stroke="#a8bec0" stroke-width="0.3"/></g><g><path d="M889,355c2.62-10.03-9.14-6.44-15-7-6.09.73-18.05-3.32-15,7c3.33,0,6.67,0,10,0c0,3.33,0,6.67,0,10c3,0,6,0,9,0-2.48-8.51,3.22-11.9,11-10Z" fill="none" fill-opacity="0" stroke="#b0cea2" stroke-width="0.3"/></g><g><path d="M523,351c-2.86-.02-4.13,3.21-6.25,4.73-3.28,3.27-.11-4.98-3.75-3.73.09,3.42.18,6.92-1,10c3.97-3.11,7.81-7.02,11-11Z" fill="none" fill-opacity="0" stroke="#9ab4b4" stroke-width="0.3"/></g><g><path d="M396,353c-1.72,2.54-1.56,8.39,0,11c1.53-3.21,1.6-7.79,0-11Z" fill="none" fill-opacity="0" stroke="#92adbd" stroke-width="0.3"/></g><g><path d="M399,364c3.2-.59,3.68-11.92-1-11c0,3.73-.32,7.62,1,11Z" fill="none" fill-opacity="0" stroke="#8facbc" stroke-width="0.3"/></g><g><path d="M297,420c4.6-1.34,6.02-8.88,11.3-11.7c19.07-19.01,41.37-37.47,67.47-46.53c2.71-3.13,15.07-3.43,12.23-5.77-35.55,9.45-69.7,32.78-91,64Z" fill="none" fill-opacity="0" stroke="#7397ae" stroke-width="0.3"/></g><g><path d="M497,367c-1.85-3.61-6.38-4.58-10-5-.63,6.39,4.2,12.69,11,12-1.15-4.15-8.02-5.69-9-10c3.05.27,4.89,5.65,8,3Z" fill="none" fill-opacity="0" stroke="#98b6b9" stroke-width="0.3"/></g><g><path d="M317,426c27.92-31.58,65.11-54.23,107-56c6.09-2.29,14.16-.37,21-1-50.94-6.43-100.4,19.63-132,59c1.82.4,2.54-1.45,4-2Z" fill="none" fill-opacity="0" stroke="#7898ac" stroke-width="0.3"/></g><g><path d="M424,370c7.33,0,14.67,0,22,0-.21-.04-.7-.78-1-1-6.84.63-14.91-1.29-21,1Z" fill="none" fill-opacity="0" stroke="#c5d6da" stroke-width="0.3"/></g><g><path d="M317,426c-3.38,7.34,6.55,15.66,2.98,24.98-3.27,27.51-47.85,27.38-50.98.02-8.14-1.94-21.57,4.28-26.07-3.93-4.6-15.21-7.88-31.29-12.93-46.07-2.09,24.48-2.34,49.42-4,74-3.05,10.29,3.83,26.74-5.97,32.97-9.07-5.21-6.63-19.26-11.04-27.96-2.48-10.02-5.15-20.07-7.99-30.01-13.78,4.41-17.58-7.03-20-17-.69,8.6-3.94,16.5-5.02,24.98-2.95,6.24-.16,18.64-8.9,19.94C158.21,466.5,154.85,450.7,150,437c-50,0-100,0-150,0v331h1366v-331c-70.67,0-141.33,0-212,0-2.59,9.89-7.6,18.87-10.23,28.77-1.06,13.57-15.44,15.59-14.77.23-1.7-10.51-3.96-20.86-7-31-1.84,9.72-6.48,18.87-19,15-3.26,10.12-5.71,20.41-8.22,30.78-5.02,8.17-1.86,23.64-11.75,27.19-8.91-6.48-2.34-22.88-6.03-32.97-.94-24.7-1.27-50.09-4-74-2.83,11.73-6.22,23.26-9.02,34.98.76,16.75-14.52,17.87-27.98,16.02-3.41,16.22-23.62,25.21-37.92,16.92-16.07-7.04-16.62-29.72-7.08-41.92-20.72-24.88-48.42-42.2-77.93-52.07C876.63,364.5,836.14,370.71,802,384c-29.67,11.93-58.48,28.33-89.08,38.92C677.6,435.61,637.3,435.22,601,426c0,2.67,0,5.33,0,8-1.6,3.52-5.15.61-8,2-2.58-3.07.68-8.35-2-11-2.32,3.5.1,9.09-2,13-9.94,2.58-11.42-5.25-10-14-.22-.3-.65-.88-1-1-3.47.14-1.44-4.85-2-7-28.26-11.48-55.39-26.28-84-37-15.18-3.65-30.01-8.53-46-9-7.33,0-14.67,0-22,0-41.89,1.77-79.08,24.42-107,56Z" fill="none" fill-opacity="0" stroke="#fefefe" stroke-width="0.3"/></g><g><path d="M492,379c28.61,10.72,55.74,25.52,84,37-.82-4.3,2.37-8.41,7-7-10.68-9.93,11.95-11.23,3,0c8.78,4.22,5.92-3.05,10-8-22.85-7.37-44.08-19.01-66-29-1.39,4.35-12-1.72-10,7-2.58-2.03-8.14-1.58-7,2-6.44-4.96-14.41-5.1-21-2Z" fill="none" fill-opacity="0" stroke="#8db2b3" stroke-width="0.3"/></g><g><path d="M679,410c4.31-1.22,7.32,1.24,12,1c.57-1.87,2.74-5.64,4-2c1.93.7-.15,4.66,3,4-1.59-7.65-1.67-16.17-3-24c.08,2.44-.34,5.4-2,7-2.08-3.36,1.64-8.09,2-12c8.5-3.18,15.29,4.73,12,12-.26-2.44-1.76-4.52-2-7-3.16,4.3,1.69,12.6-3,16-2.5-1.33.57-5.74-2-7-2.22,3.75-.41,9.49-1,14c6,5.79,8.32-3.36,7-9c2.05-.12,4.7-.5,6-2-2.27-.54-3.77,1.52-6,1c2.08-3.83,5.46-6.15,2.98-11.98-.21-4.45-2.59-9.14-7.98-8.02c4.24-1.5,4.34-9.78-.97-9.97-5.03.11-5.17,7.33-2.03,9.97-5.02,2.5-9.91.35-15.75,1.25-3.76,3.53-3.47,9.06-4.25,13.75c5.35,1.37,5.68,10.78,1,13m22-36c4.69,10.11-10.29,2.94,0,0m-10,11c-2.64,6.41.74,15.02-2,21-1-2.79-1.18-5.89-1-9-4.94.23-2.35,6.8-3,10-3.09-6.52.42-15.44-3-21c2.58-1.82,6.02-.67,9-1m2,21c-1.5-1.64-1.72-6.43,0-8c1.5,1.64,1.72,6.43,0,8Z" fill="none" fill-opacity="0" stroke="#c4d8ca" stroke-width="0.3"/></g><g><path d="M712,401c-1.3,1.5-3.95,1.88-6,2c1.32,5.64-1,14.79-7,9c.63,2.53-2.53,1.9-4,2c0-1.67,0-3.33,0-5-1.26-3.64-3.43.13-4,2-4.68.24-7.69-2.22-12-1-25.14,4.22-51.35,1.36-75-6-1.54.37-2.4-1.43-4-1c1.77,2.77-.43,4.36-1,7c5.61-.23,3.92,7.57,6,11-2.19,1.26-2.86,4.27-6,4-.59,2.84,1.22,6.98-1,9-1.82-2.58-.67-6.02-1-9-2.27,2.7-1.77,13.01,4,9c0-2.67,0-5.33,0-8c36.3,9.22,76.6,9.61,111.92-3.08c30.6-10.59,59.41-26.99,89.08-38.92-13.76,1.13-27.3,12.6-41,14c0-3.37-7.5-3.89-9-2c1.74-5.06-1.13-2.22-3-5c4.53-.51,3.21-4.72,6,0c.57-2.64,2.77-4.23,1-7c5.91-4.1,15.41-4.87,19-11-21.09,8.99-41.33,20.66-63,28Z" fill="none" fill-opacity="0" stroke="#99beaf" stroke-width="0.3"/></g><g><path d="M701,374c-10.29,2.94,4.69,10.11,0,0Z" fill="none" fill-opacity="0" stroke="#f7f9f7" stroke-width="0.3"/></g><g><path d="M689,375c-13.83,3.28,7.06,11.85,0,0m1,3c-3.69,7.51-7.18-4.02,0,0Z" fill="none" fill-opacity="0" stroke="#afc8b7" stroke-width="0.3"/></g><g><path d="M690,378c-7.18-4.02-3.69,7.51,0,0Z" fill="none" fill-opacity="0" stroke="#f0f6f1" stroke-width="0.3"/></g><g><path d="M695,409c0,1.67,0,3.33,0,5c1.47-.1,4.63.53,4-2c.59-4.51-1.22-10.25,1-14c2.57,1.26-.5,5.67,2,7c4.69-3.4-.16-11.7,3-16c.24,2.48,1.74,4.56,2,7c3.29-7.27-3.5-15.18-12-12-.36,3.91-4.08,8.64-2,12c1.66-1.6,2.08-4.56,2-7c1.33,7.83,1.41,16.35,3,24-3.15.66-1.07-3.3-3-4Z" fill="none" fill-opacity="0" stroke="#f5f9f4" stroke-width="0.3"/></g><g><path d="M691,385c-2.98.33-6.42-.82-9,1c3.42,5.56-.09,14.48,3,21c.65-3.2-1.94-9.77,3-10-.18,3.11,0,6.21,1,9c2.74-5.98-.64-14.59,2-21Z" fill="none" fill-opacity="0" stroke="#fcfdfb" stroke-width="0.3"/></g><g><path d="M693,406c1.72-1.57,1.5-6.36,0-8-1.72,1.57-1.5,6.36,0,8Z" fill="none" fill-opacity="0" stroke="#fbfcfc" stroke-width="0.3"/></g><g><path d="M576,416c.56,2.15-1.47,7.14,2,7c.41-.83.97-1.87,2-2c2.71,4.83-1.38,12.44,3,16-6.51.17-.49-10.06-4-13-1.42,8.75.06,16.58,10,14c2.1-3.91-.32-9.5,2-13c2.68,2.65-.58,7.93,2,11c2.85-1.39,6.4,1.52,8-2-5.77,4.01-6.27-6.3-4-9c.33,2.98-.82,6.42,1,9c2.22-2.02.41-6.16,1-9c3.14.27,3.81-2.74,6-4-2.08-3.43-.39-11.23-6-11c.57-2.64,2.77-4.23,1-7c1.6-.43,2.46,1.37,4,1-1.74-2.45-5.44-1.94-8-3-4.08,4.95-1.22,12.22-10,8c8.95-11.23-13.68-9.93-3,0-4.63-1.41-7.82,2.7-7,7m10-14c1.38,9.71-8.94.04,0,0m12,2c3.52,6.75-7.57,1.42,0,0m-9,7c-1.65,2.4-2.57,5.4-2,9-6.44,1.65-5.05-10.03-9-5-.73-6.23,7.32-3.36,11-4m12,1c-3.29,3.17-.53,7.47-1,12-8.49,1.25-7.28-6.82-7-13c2.72.17,5.67-.61,8,1m-12,9c0,5,0,10,0,15-1.6-3.93-1.7-11.14,0-15m-4,3c0,4,0,8,0,12-1.57-2.94-1.71-9.13,0-12Z" fill="none" fill-opacity="0" stroke="#d7e5e2" stroke-width="0.3"/></g><g><path d="M586,402c-8.94.04,1.38,9.71,0,0Z" fill="none" fill-opacity="0" stroke="#8fb2ab" stroke-width="0.3"/></g><g><path d="M598,404c-7.57,1.42,3.52,6.75,0,0Z" fill="none" fill-opacity="0" stroke="#89aca3" stroke-width="0.3"/></g><g><path d="M589,411c-3.68.64-11.73-2.23-11,4c3.95-5.03,2.56,6.65,9,5-.57-3.6.35-6.6,2-9Z" fill="none" fill-opacity="0" stroke="#8baea8" stroke-width="0.3"/></g><g><path d="M601,412c-2.33-1.61-5.28-.83-8-1-.28,6.18-1.49,14.25,7,13c.47-4.53-2.29-8.83,1-12Z" fill="none" fill-opacity="0" stroke="#8bb0a8" stroke-width="0.3"/></g><g><path d="M578,423c.35.12.78.7,1,1c3.51,2.94-2.51,13.17,4,13-4.38-3.56-.29-11.17-3-16-1.03.13-1.59,1.17-2,2Z" fill="none" fill-opacity="0" stroke="#9fbdb6" stroke-width="0.3"/></g><g><path d="M589,421c-1.7,3.86-1.6,11.07,0,15c0-5,0-10,0-15Z" fill="none" fill-opacity="0" stroke="#a3c0b8" stroke-width="0.3"/></g><g><path d="M585,424c-1.71,2.87-1.57,9.06,0,12c0-4,0-8,0-12Z" fill="none" fill-opacity="0" stroke="#99b8af" stroke-width="0.3"/></g><g><path d="M0,428c48.33,0,96.67,0,145,0c16.89-3.67,14.91,18.14,21,28c4.03-8.37,4.9-18.68,7-28c1.61-6.1,3.84-26.09,12.77-15.77c1.79,9.8,5.03,19.07,7.23,28.77c20.9-5.96,18.48,19.19,23,32c3.59-30.86,3.65-63.48,6-95-4.72-13.5,11.62-15.3,10.98-1.98c4.86,17.87,9.73,35.7,14.34,53.66-.73,13.45,10.85,13.56,21.68,12.32c1.1-13.36,14.77-23.4,28-22c21.3-31.22,55.45-54.55,91-64c.53-1.6,2.75-.72,4-1-2.06-3.86-3.28-10.1-1-14c2.13,2.43.47,6.82,1,10c2.5-1.33-.57-5.74,2-7c1.4,7.7-3.97,16.26,1,23c2.31-2.82,2.8-2.4,6-1c3.57-7.27-1.89-16.29,1-23c2.08,2.1.5,6.15,1,9c4.69-8.4-1.83-15.01-11-12c6.07-1.96-.29-5.36,3.75-9.25c4.71-3.29,8.64,4.34,4.25,7.25c6.53-.35,6.47,7.3,6,12c31.4-2.35,63.49-1.66,92,10c4.93-11.05,18.48-16.75,31-17c.35,8.47.16,18.05-6,24c2.89-6.85,4.95-14.07,4-22-6.94,1.44-14.68,1.62-20.25,6.75-8.76,3.84-2.94,16.27.25,5.25c2.87,6.32-.23,11.41-6,14-.67-3.2,1.71-8.3-2-10c0,1.33,0,2.67,0,4-4.39-2.3-8.65-4.97-14-4-.55,7.66,5.48,16.03,14,14c6.69-1.11,16.02,1.77,21-5-4.96,2.25-10.15,3.84-16,3c.59-5.38,6.76-5.42,11-5-2.64-1.9-7.31.23-5-5c5.55,4.18,13.53,5.49,20,9c21.92,9.99,43.15,21.63,66,29c2.56,1.06,6.26.55,8,3c23.65,7.36,49.86,10.22,75,6c4.68-2.22,4.35-11.63-1-13c.78-4.69.49-10.22,4.25-13.75c5.84-.9,10.73,1.25,15.75-1.25-3.14-2.64-3-9.86,2.03-9.97c5.31.19,5.21,8.47.97,9.97c5.39-1.12,7.77,3.57,7.98,8.02c2.48,5.83-.9,8.15-2.98,11.98c2.23.52,3.73-1.54,6-1c21.67-7.34,41.91-19.01,63-28c20.08-9.37,40.97-16.11,62.22-21.78c6.9-2.51,19.28,1.52,20.78-7.22c3,0,6,0,9,0-6.24-14.9,19.22-14.92,13,0c3.33,0,6.67,0,10,0c3.27,10.4,19.61,5.79,28.22,10.78c35.65,10.84,70.42,33.38,91.78,65.22c12.74-.74,24.59,9.47,26,22c5.67,0,11.33,0,17,0c4.48-19.49,10.54-38.49,14.99-58.01c2.64-6.07,3.66-25.66,13.76-15.74c1.5,34.98,2.47,70.56,5.25,104.75c6.14-11,1.07-36.37,20-33c11.8-3.15,3.7-36.17,19.75-28.75c2.8,14.71,6.98,28.92,9.25,43.75c8.94-7.38,5.29-32.25,24-27c68.67,0,137.33,0,206,0v-428L0,0v428m305-90c2.62,10.74,2.07,22.34,5,33c2.07-5.74,1.25-13.11,4-19c3.41,2.65,2.16,8.22,4,12c.81-5.11,8.58-4.98,12-3-2.1,2.08-6.15.5-9,1-.4,2.11-1.38,4.66-3,6-2.32-2.56-1.78-6.77-3-10-2.78,6.88-1.36,16.42-5,23-4.02-9.98-3.09-22.12-5-33-3.95,5.13-1.85,13.6-5,19-2.27-2.31-3.26-5.83-4-9-1.8,4.41-8.49,5.35-12,3c4.73-1.25,9.61-.69,12-6c1.47,1.49,2.74,3.78,3,6c3.87-6.61,1.36-16.96,6-23m697,30c3.51-4.25.93-11.65,4-16c2.88,2.5,2.76,7.39,4,11c1.82-4.14,8.85-3.78,12-2-4.41,1.59-10.8-.06-11,7-3.14-.16-1.79-5.1-4-7-3.09,6.13-2.35,14.79-5,21-5.31-8.55-1.8-21.19-5-31-3.36,4.37-2.6,11.38-5,16-3.02-1.48-2.21-5.52-4-8-1.82,4.14-8.85,3.78-12,2c3.55-1.78,10.16.09,11-6c3.06-.35,2.19,4.47,5,5c.79-7.45,2.42-14.74,4-22c4.78,8.44,3.34,20.29,6,30M523,351c-3.19,3.98-7.03,7.89-11,11c1.18-3.08,1.09-6.58,1-10c3.64-1.25.47,7,3.75,3.73c2.12-1.52,3.39-4.75,6.25-4.73m-127,2c1.6,3.21,1.53,7.79,0,11-1.56-2.61-1.72-8.46,0-11m3,11c-1.32-3.38-1-7.27-1-11c4.68-.92,4.2,10.41,1,11m98,3c-3.11,2.65-4.95-2.73-8-3c.98,4.31,7.85,5.85,9,10-6.8.69-11.63-5.61-11-12c3.62.42,8.15,1.39,10,5m192,8c7.06,11.85-13.83,3.28,0,0Z" fill="#fefefe"/></g><g><path d="M388,356c2.84,2.34-9.52,2.64-12.23,5.77-26.1,9.06-48.4,27.52-67.47,46.53-5.28,2.82-6.7,10.36-11.3,11.7-13.23-1.4-26.9,8.64-28,22-10.83,1.24-22.41,1.13-21.68-12.32-4.61-17.96-9.48-35.79-14.34-53.66.64-13.32-15.7-11.52-10.98,1.98-2.35,31.52-2.41,64.14-6,95-4.52-12.81-2.1-37.96-23-32-2.2-9.7-5.44-18.97-7.23-28.77-8.93-10.32-11.16,9.67-12.77,15.77-2.1,9.32-2.97,19.63-7,28-6.09-9.86-4.11-31.67-21-28-48.33,0-96.67,0-145,0v9c50,0,100,0,150,0c4.85,13.7,8.21,29.5,17.08,40.92c8.74-1.3,5.95-13.7,8.9-19.94c1.08-8.48,4.33-16.38,5.02-24.98c2.42,9.97,6.22,21.41,20,17c2.84,9.94,5.51,19.99,7.99,30.01c4.41,8.7,1.97,22.75,11.04,27.96c9.8-6.23,2.92-22.68,5.97-32.97c1.66-24.58,1.91-49.52,4-74c5.05,14.78,8.33,30.86,12.93,46.07c4.5,8.21,17.93,1.99,26.07,3.93c3.13,27.36,47.71,27.49,50.98-.02c3.57-9.32-6.36-17.64-2.98-24.98-1.46.55-2.18,2.4-4,2c31.6-39.37,81.06-65.43,132-59c.3.22.79.96,1,1c15.99.47,30.82,5.35,46,9c6.59-3.1,14.56-2.96,21,2-1.14-3.58,4.42-4.03,7-2-2-8.72,8.61-2.65,10-7-6.47-3.51-14.45-4.82-20-9-2.31,5.23,2.36,3.1,5,5-4.24-.42-10.41-.38-11,5c5.85.84,11.04-.75,16-3-4.98,6.77-14.31,3.89-21,5-8.52,2.03-14.55-6.34-14-14c5.35-.97,9.61,1.7,14,4c0-1.33,0-2.67,0-4-.33-.17-.73-.82-1-1-28.51-11.66-60.6-12.35-92-10c.47-4.7.53-12.35-6-12c4.39-2.91.46-10.54-4.25-7.25-4.04,3.89,2.32,7.29-3.75,9.25c9.17-3.01,15.69,3.6,11,12-.5-2.85,1.08-6.9-1-9-2.89,6.71,2.57,15.73-1,23-3.2-1.4-3.69-1.82-6,1-4.97-6.74.4-15.3-1-23-2.57,1.26.5,5.67-2,7-.53-3.18,1.13-7.57-1-10-2.28,3.9-1.06,10.14,1,14-1.25.28-3.47-.6-4,1m12-24c.49,8.46-8.54-1.3,0,0Z" fill="#86aebc"/></g><g><path d="M400,332c-8.54-1.3.49,8.46,0,0Z" fill="#f3f7f9"/></g><g><path d="M775,373c-3.59,6.13-17.09,8.9-23,13" fill="#b6d5a4"/><path d="M827.050961,354.780002c1.5-1.89-104.553631,60.809714-104.553631,64.179714C736.19733,417.559716,788.24,387.13,802,386c34.14-13.29,74.63-21.5,111.07-11.07C942.58,384.8,970.28,402.12,991,427c-9.54,12.2-8.99,34.88,7.08,41.92c14.3,8.29,34.51-.7,37.92-16.92c13.46,1.85,28.74.73,27.98-16.02c2.8-11.72,6.19-23.25,9.02-34.98c2.73,23.91,3.06,49.3,4,74c3.69,10.09-2.88,26.49,6.03,32.97c9.89-3.55,6.73-19.02,11.75-27.19c2.51-10.37,4.96-20.66,8.22-30.78c12.52,3.87,17.16-5.28,19-15c3.04,10.14,5.3,20.49,7,31-.67,15.36,13.71,13.34,14.77-.23c2.63-9.9,7.64-18.88,10.23-28.77c70.67,0,141.33,0,212,0v-9c-68.67,0-137.33,0-206,0-18.71-5.25-15.06,19.62-24,27-2.27-14.83-6.45-29.04-9.25-43.75-16.05-7.42-7.95,25.6-19.75,28.75-18.93-3.37-13.86,22-20,33-2.78-34.19-3.75-69.77-5.25-104.75-10.1-9.92-11.12,9.67-13.76,15.74-4.45,19.52-10.51,38.52-14.99,58.01-5.67,0-11.33,0-17,0-1.41-12.53-13.26-22.74-26-22-21.36-31.84-56.13-54.38-91.78-65.22-8.61-4.99-24.95-.38-28.22-10.78-3.33,0-6.67,0-10,0c6.22-14.92-19.24-14.9-13,0-3,0-6,0-9,0-1.5,8.74-13.88,4.71-20.78,7.22-21.25,5.67-42.14,12.41-62.22,21.78m103-38c0,3.67,0,7.33,0,11c13.56-6.34,17.08,15.74,2,11c2.85,9.28-4.2,11.62-12,10c0-3.67,0-7.33,0-11-15.11,5.31-12.74-15.36,1-10c0-3.67,0-7.33,0-11c3,0,6,0,9,0Z" fill="#b6d5a4"/></g><g><path d="M878,335c-3,0-6,0-9,0c0,3.67,0,7.33,0,11-13.74-5.36-16.11,15.31-1,10c0,3.67,0,7.33,0,11c7.8,1.62,14.85-.72,12-10c15.08,4.74,11.56-17.34-2-11c0-3.67,0-7.33,0-11m11,20c-7.78-1.9-13.48,1.49-11,10-3,0-6,0-9,0c0-3.33,0-6.67,0-10-3.33,0-6.67,0-10,0-3.05-10.32,8.91-6.27,15-7c5.86.56,17.62-3.03,15,7Z" fill="#f4f8f0"/></g><g><path d="M305,338c-4.64,6.04-2.13,16.39-6,23-.26-2.22-1.53-4.51-3-6-2.39,5.31-7.27,4.75-12,6c3.51,2.35,10.2,1.41,12-3c.74,3.17,1.73,6.69,4,9c3.15-5.4,1.05-13.87,5-19c1.91,10.88.98,23.02,5,33c3.64-6.58,2.22-16.12,5-23c1.22,3.23.68,7.44,3,10c1.62-1.34,2.6-3.89,3-6c2.85-.5,6.9,1.08,9-1-3.42-1.98-11.19-2.11-12,3-1.84-3.78-.59-9.35-4-12-2.75,5.89-1.93,13.26-4,19-2.93-10.66-2.38-22.26-5-33Z" fill="#8ea8bc"/></g><g><path d="M1002,368c-2.66-9.71-1.22-21.56-6-30-1.58,7.26-3.21,14.55-4,22-2.81-.53-1.94-5.35-5-5-.84,6.09-7.45,4.22-11,6c3.15,1.78,10.18,2.14,12-2c1.79,2.48.98,6.52,4,8c2.4-4.62,1.64-11.63,5-16c3.2,9.81-.31,22.45,5,31c2.65-6.21,1.91-14.87,5-21c2.21,1.9.86,6.84,4,7c.2-7.06,6.59-5.41,11-7-3.15-1.78-10.18-2.14-12,2-1.24-3.61-1.12-8.5-4-11-3.07,4.35-.49,11.75-4,16Z" fill="#cadfb7"/></g><g><path d="M498,360c.27.18.67.83,1,1c3.71,1.7,1.33,6.8,2,10c5.77-2.59,8.87-7.68,6-14-3.19,11.02-9.01-1.41-.25-5.25c5.57-5.13,13.31-5.31,20.25-6.75.95,7.93-1.11,15.15-4,22c6.16-5.95,6.35-15.53,6-24-12.52.25-26.07,5.95-31,17Z" fill="#a8bec0"/></g><g><path d="M889,355c2.62-10.03-9.14-6.44-15-7-6.09.73-18.05-3.32-15,7c3.33,0,6.67,0,10,0c0,3.33,0,6.67,0,10c3,0,6,0,9,0-2.48-8.51,3.22-11.9,11-10Z" fill="#b0cea2"/></g><g><path d="M523,351c-2.86-.02-4.13,3.21-6.25,4.73-3.28,3.27-.11-4.98-3.75-3.73.09,3.42.18,6.92-1,10c3.97-3.11,7.81-7.02,11-11Z" fill="#9ab4b4"/></g><g><path d="M396,353c-1.72,2.54-1.56,8.39,0,11c1.53-3.21,1.6-7.79,0-11Z" fill="#92adbd"/></g><g><path d="M399,364c3.2-.59,3.68-11.92-1-11c0,3.73-.32,7.62,1,11Z" fill="#8facbc"/></g><g><path d="M297,420c4.6-1.34,6.02-8.88,11.3-11.7c19.07-19.01,41.37-37.47,67.47-46.53c2.71-3.13,15.07-3.43,12.23-5.77-35.55,9.45-69.7,32.78-91,64Z" fill="#7397ae"/></g><g><path d="M497,367c-1.85-3.61-6.38-4.58-10-5-.63,6.39,4.2,12.69,11,12-1.15-4.15-8.02-5.69-9-10c3.05.27,4.89,5.65,8,3Z" fill="#98b6b9"/></g><g><path d="M317,426c27.92-31.58,65.11-54.23,107-56c6.09-2.29,14.16-.37,21-1-50.94-6.43-100.4,19.63-132,59c1.82.4,2.54-1.45,4-2Z" fill="#7898ac"/></g><g><path d="M424,370c7.33,0,14.67,0,22,0-.21-.04-.7-.78-1-1-6.84.63-14.91-1.29-21,1Z" fill="#c5d6da"/></g><g><path d="M317,426c-3.38,7.34,6.55,15.66,2.98,24.98-3.27,27.51-47.85,27.38-50.98.02-8.14-1.94-21.57,4.28-26.07-3.93-4.6-15.21-7.88-31.29-12.93-46.07-2.09,24.48-2.34,49.42-4,74-3.05,10.29,3.83,26.74-5.97,32.97-9.07-5.21-6.63-19.26-11.04-27.96-2.48-10.02-5.15-20.07-7.99-30.01-13.78,4.41-17.58-7.03-20-17-.69,8.6-3.94,16.5-5.02,24.98-2.95,6.24-.16,18.64-8.9,19.94C158.21,466.5,154.85,450.7,150,437c-50,0-100,0-150,0v331h1366v-331c-70.67,0-141.33,0-212,0-2.59,9.89-7.6,18.87-10.23,28.77-1.06,13.57-15.44,15.59-14.77.23-1.7-10.51-3.96-20.86-7-31-1.84,9.72-6.48,18.87-19,15-3.26,10.12-5.71,20.41-8.22,30.78-5.02,8.17-1.86,23.64-11.75,27.19-8.91-6.48-2.34-22.88-6.03-32.97-.94-24.7-1.27-50.09-4-74-2.83,11.73-6.22,23.26-9.02,34.98.76,16.75-14.52,17.87-27.98,16.02-3.41,16.22-23.62,25.21-37.92,16.92-16.07-7.04-16.62-29.72-7.08-41.92-20.72-24.88-48.42-42.2-77.93-52.07C876.63,364.5,836.14,370.71,802,384c-29.67,11.93-58.48,28.33-89.08,38.92C677.6,435.61,637.3,435.22,601,426c0,2.67,0,5.33,0,8-1.6,3.52-5.15.61-8,2-2.58-3.07.68-8.35-2-11-2.32,3.5.1,9.09-2,13-9.94,2.58-11.42-5.25-10-14-.22-.3-.65-.88-1-1-3.47.14-1.44-4.85-2-7-28.26-11.48-55.39-26.28-84-37-15.18-3.65-30.01-8.53-46-9-7.33,0-14.67,0-22,0-41.89,1.77-79.08,24.42-107,56Z" fill="#fefefe"/></g><g><path d="M492,379c28.61,10.72,55.74,25.52,84,37-.82-4.3,2.37-8.41,7-7-10.68-9.93,11.95-11.23,3,0c8.78,4.22,5.92-3.05,10-8-22.85-7.37-44.08-19.01-66-29-1.39,4.35-12-1.72-10,7-2.58-2.03-8.14-1.58-7,2-6.44-4.96-14.41-5.1-21-2Z" fill="#8db2b3"/></g><g><path d="M679,410c4.31-1.22,7.32,1.24,12,1c.57-1.87,2.74-5.64,4-2c1.93.7-.15,4.66,3,4-1.59-7.65-1.67-16.17-3-24c.08,2.44-.34,5.4-2,7-2.08-3.36,1.64-8.09,2-12c8.5-3.18,15.29,4.73,12,12-.26-2.44-1.76-4.52-2-7-3.16,4.3,1.69,12.6-3,16-2.5-1.33.57-5.74-2-7-2.22,3.75-.41,9.49-1,14c6,5.79,8.32-3.36,7-9c2.05-.12,4.7-.5,6-2-2.27-.54-3.77,1.52-6,1c2.08-3.83,5.46-6.15,2.98-11.98-.21-4.45-2.59-9.14-7.98-8.02c4.24-1.5,4.34-9.78-.97-9.97-5.03.11-5.17,7.33-2.03,9.97-5.02,2.5-9.91.35-15.75,1.25-3.76,3.53-3.47,9.06-4.25,13.75c5.35,1.37,5.68,10.78,1,13m22-36c4.69,10.11-10.29,2.94,0,0m-10,11c-2.64,6.41.74,15.02-2,21-1-2.79-1.18-5.89-1-9-4.94.23-2.35,6.8-3,10-3.09-6.52.42-15.44-3-21c2.58-1.82,6.02-.67,9-1m2,21c-1.5-1.64-1.72-6.43,0-8c1.5,1.64,1.72,6.43,0,8Z" fill="#c4d8ca"/></g><g><path d="M822.314905,355.000001C794.230373,361.030775,733.67,393.66,712,401c-1.3,1.5-3.95,1.88-6,2c1.32,5.64-1,14.79-7,9c.63,2.53-2.53,1.9-4,2c0-1.67,0-3.33,0-5-1.26-3.64-3.43.13-4,2-4.68.24-7.69-2.22-12-1-25.14,4.22-51.35,1.36-75-6-1.54.37-2.4-1.43-4-1c1.77,2.77-.43,4.36-1,7c5.61-.23,3.92,7.57,6,11-2.19,1.26-2.86,4.27-6,4-.59,2.84,1.22,6.98-1,9-1.82-2.58-.67-6.02-1-9-2.27,2.7-1.77,13.01,4,9c0-2.67,0-5.33,0-8c36.3,9.22,76.6,9.61,111.92-3.08c30.6-10.59,94.899287-58.99,124.569287-70.92" transform="translate(-.269287 0)" fill="#99beaf"/><path d="" transform="translate(-.269287 0)" fill="#99beaf"/></g><g><path d="M701,374c-10.29,2.94,4.69,10.11,0,0Z" fill="#f7f9f7"/></g><g><path d="M689,375c-13.83,3.28,7.06,11.85,0,0m1,3c-3.69,7.51-7.18-4.02,0,0Z" fill="#afc8b7"/></g><g><path d="M690,378c-7.18-4.02-3.69,7.51,0,0Z" fill="#f0f6f1"/></g><g><path d="M695,409c0,1.67,0,3.33,0,5c1.47-.1,4.63.53,4-2c.59-4.51-1.22-10.25,1-14c2.57,1.26-.5,5.67,2,7c4.69-3.4-.16-11.7,3-16c.24,2.48,1.74,4.56,2,7c3.29-7.27-3.5-15.18-12-12-.36,3.91-4.08,8.64-2,12c1.66-1.6,2.08-4.56,2-7c1.33,7.83,1.41,16.35,3,24-3.15.66-1.07-3.3-3-4Z" fill="#f5f9f4"/></g><g><path d="M691,385c-2.98.33-6.42-.82-9,1c3.42,5.56-.09,14.48,3,21c.65-3.2-1.94-9.77,3-10-.18,3.11,0,6.21,1,9c2.74-5.98-.64-14.59,2-21Z" fill="#fcfdfb"/></g><g><path d="M693,406c1.72-1.57,1.5-6.36,0-8-1.72,1.57-1.5,6.36,0,8Z" fill="#fbfcfc"/></g><g><path d="M576,416c.56,2.15-1.47,7.14,2,7c.41-.83.97-1.87,2-2c2.71,4.83-1.38,12.44,3,16-6.51.17-.49-10.06-4-13-1.42,8.75.06,16.58,10,14c2.1-3.91-.32-9.5,2-13c2.68,2.65-.58,7.93,2,11c2.85-1.39,6.4,1.52,8-2-5.77,4.01-6.27-6.3-4-9c.33,2.98-.82,6.42,1,9c2.22-2.02.41-6.16,1-9c3.14.27,3.81-2.74,6-4-2.08-3.43-.39-11.23-6-11c.57-2.64,2.77-4.23,1-7c1.6-.43,2.46,1.37,4,1-1.74-2.45-5.44-1.94-8-3-4.08,4.95-1.22,12.22-10,8c8.95-11.23-13.68-9.93-3,0-4.63-1.41-7.82,2.7-7,7m10-14c1.38,9.71-8.94.04,0,0m12,2c3.52,6.75-7.57,1.42,0,0m-9,7c-1.65,2.4-2.57,5.4-2,9-6.44,1.65-5.05-10.03-9-5-.73-6.23,7.32-3.36,11-4m12,1c-3.29,3.17-.53,7.47-1,12-8.49,1.25-7.28-6.82-7-13c2.72.17,5.67-.61,8,1m-12,9c0,5,0,10,0,15-1.6-3.93-1.7-11.14,0-15m-4,3c0,4,0,8,0,12-1.57-2.94-1.71-9.13,0-12Z" fill="#d7e5e2"/></g><g><path d="M586,402c-8.94.04,1.38,9.71,0,0Z" fill="#8fb2ab"/></g><g><path d="M598,404c-7.57,1.42,3.52,6.75,0,0Z" fill="#89aca3"/></g><g><path d="M589,411c-3.68.64-11.73-2.23-11,4c3.95-5.03,2.56,6.65,9,5-.57-3.6.35-6.6,2-9Z" fill="#8baea8"/></g><g><path d="M601,412c-2.33-1.61-5.28-.83-8-1-.28,6.18-1.49,14.25,7,13c.47-4.53-2.29-8.83,1-12Z" fill="#8bb0a8"/></g><g><path d="M578,423c.35.12.78.7,1,1c3.51,2.94-2.51,13.17,4,13-4.38-3.56-.29-11.17-3-16-1.03.13-1.59,1.17-2,2Z" fill="#9fbdb6"/></g><g><path d="M589,421c-1.7,3.86-1.6,11.07,0,15c0-5,0-10,0-15Z" fill="#a3c0b8"/></g><g><path d="M585,424c-1.71,2.87-1.57,9.06,0,12c0-4,0-8,0-12Z" fill="#99b8af"/></g></svg>
