<?xml version="1.0" encoding="UTF-8" standalone="no"?>
<svg xmlns="http://www.w3.org/2000/svg" xmlns:xlink="http://www.w3.org/1999/xlink" version="1.1" width="700" height="700" viewBox="409 -7 700 700"><defs><linearGradient x1="1029.05507" y1="292.119" x2="517.80188" y2="379.47567" gradientUnits="userSpaceOnUse" id="color-1"><stop offset="0" stop-color="#d7eca6"/><stop offset="1" stop-color="#9ad1fe"/></linearGradient></defs><g id="document" fill="#ffffff" fill-rule="nonzero" font-family="none" font-weight="none" font-size="none"><rect x="409" y="-5" transform="scale(1,1.4)" width="700" height="500" id="Shape-1-1"/></g><g fill="none" fill-rule="nonzero" stroke="none" stroke-width="none" stroke-linecap="none" stroke-linejoin="none" stroke-miterlimit="10" font-family="none" font-weight="none" font-size="none"><g><g id="stage"><g id="layer1-1"><g id="Group-1" stroke-width="1" stroke-linecap="butt" stroke-linejoin="miter"><g id="Group-1-1"><g id="Group-1-2"><path d="M479,343.54389l22.39194,-0.02977c2.49816,-0.00355 10.97427,-0.44227 12.517,0.62119c0.53977,0.99051 0.61141,1.39263 0.85148,2.46372l-0.20699,0.58977c-1.31634,-0.16772 -1.90504,1.0651 -2.24683,2.24218l-0.67867,-2.90763l-32.62793,0.00437z" id="Path-1" fill="#97caf6"/><path d="M914.04181,334.24571c1.52578,-0.03743 3.11171,-0.02269 4.6457,-0.03032l-0.00273,5.23423c1.75,-0.02212 3.53008,0.04262 5.28282,0.08878c0.15312,1.36694 0.08204,3.04421 0.06289,4.44339c-1.73359,-0.0448 -3.64493,0.01694 -5.39219,0.03661l-0.07929,4.93128c-1.61054,0.27699 -2.91211,0.16664 -4.5254,0.09042l-0.01913,-5.03945c-1.78007,0.04753 -3.60937,0.01666 -5.39219,0.00847l-0.03828,-4.4221c1.50937,-0.14997 3.86367,-0.12047 5.43594,-0.1486z" id="Path-1-1" fill="#def1c9"/><path d="M914.7746,334.78986c1.44101,-0.04316 1.96055,-0.23029 3.00782,0.52039c0.43204,0.86376 0.175,3.51215 0.175,4.7171c1.98242,-0.02923 4.6047,-0.34938 5.88437,1.47021c-0.4539,2.21596 -4.19728,1.84964 -5.94728,1.84145l-0.01094,5.00093c-1.21406,0.14424 -1.93046,0.28572 -2.91483,-0.29339c-0.63437,-1.05717 -0.36641,-3.34826 -0.34181,-4.74934c-2.31875,0.02513 -3.8418,0.39555 -5.6246,-1.10852l-0.05742,-0.69851c1.09375,-1.58249 4.07969,-1.29073 5.78047,-1.27107z" id="Path-1-2" fill="#fdfdfc"/><path d="M599.20094,319.97821c0.50587,1.20837 -0.07929,4.88638 0.20864,6.52501c1.10251,6.27991 5.6525,13.26789 -0.46813,18.53245c-0.87364,0.75122 -3.38434,1.85046 -4.52566,1.69639c0.70273,-0.85857 3.96949,-2.20585 4.61125,-2.91418c4.20054,-4.63516 0.81101,-10.8733 -0.08831,-16.07118c-0.5354,-3.09301 -0.50641,-4.0782 -0.43641,-7.00853c-6.9546,2.95833 -15.06505,11.13068 -12.58824,19.77816c0.84192,2.93931 3.46883,4.40625 6.08481,5.66255c0.04866,-2.17308 0.45664,-4.24043 -0.80308,-5.82865c-1.13422,-1.12136 -2.21648,-2.32387 -2.74122,-3.84296l0.20728,-0.28874c1.43636,0.62229 2.55637,2.66506 3.41031,4.00605c0.30953,-3.73096 1.22227,-9.10231 3.10406,-12.30743c-0.56493,3.32668 -1.28624,6.85357 -1.91378,10.1849c1.04645,-0.68102 2.10875,-1.33744 3.1861,-1.96873l-0.16078,0.12811l0.96277,-0.20024l0.1132,-0.26552l0.10199,0.21771c-1.12,1.3429 -2.93316,2.45935 -4.40098,3.4597c-0.20563,5.23613 0.23241,7.82963 0.75004,12.8546c-1.32589,-2.45581 -1.34203,-2.68772 -1.70159,-5.44893c-7.13042,-2.35555 -9.16289,-7.36251 -6.52012,-14.54444c2.09042,-5.68004 7.51543,-10.23668 13.01261,-12.62557z" id="Path-1-3" fill="#d8e5ea"/><path d="M761.9504,334.74368c2.06993,2.1709 2.39258,12.32436 1.06094,14.31087c-0.82852,0.40156 -2.46641,0.22182 -3.45899,0.1792c-0.00819,-1.47131 -0.4293,-8.74365 0.54413,-9.22443c0.74101,0.95991 -0.64259,7.04753 1.19218,8.96902l0.525,-0.10191c0.71094,-0.57857 1.1539,-1.61251 1.09376,-2.50142c-0.23789,-3.40863 1.2168,-9.84316 -2.56484,-11.54584c-10.66843,-1.24047 -13.58793,-0.69439 -12.51495,10.59192c0.13507,1.41885 -0.24636,2.54349 1.02211,3.44304l0.4684,-0.16581c1.07707,-1.44262 0.97617,-6.30779 1.19739,-8.56554c0.39211,0.84491 0.59911,8.4448 0.10364,9.01628c-4.30336,1.15851 -3.82101,-2.13401 -3.74336,-5.3678c0.08805,-3.6531 -0.71476,-8.05062 3.27031,-9.74591c3.01054,-0.07403 9.39803,-0.53649 11.80428,0.70833z" id="Path-1-4" fill="#c9e2d7"/><path d="M754.2039,325.08336c2.03437,-0.61729 4.18906,0.49954 4.85352,2.51582c0.66718,2.01628 -0.40195,4.19481 -2.40352,4.9067c-1.33711,0.47587 -2.82735,0.1904 -3.89376,-0.74575c-1.06669,-0.93643 -1.54218,-2.37631 -1.24195,-3.76266c0.29995,-1.38634 1.32946,-2.50171 2.68571,-2.91411z" id="Path-1-5" fill="#c9e2d7"/><path d="M757.82967,326.79771c0.73829,0.88426 0.94064,2.09712 0.52773,3.17178c-0.41016,1.07492 -1.36993,1.84389 -2.51016,2.01109c-1.71718,0.25213 -3.31953,-0.91568 -3.60418,-2.62571c-0.28437,-1.71031 0.8534,-3.33295 2.55965,-3.64901c1.13204,-0.20979 2.29142,0.20759 3.02696,1.09185z" id="Path-1-6" fill="#fdfdfc"/><path d="M905.69375,345.06162c1.11563,0.64549 2.12461,5.66748 6.02383,7.38545c7.0793,3.11907 11.65117,-0.27371 14.95704,-6.6987l0.42383,-0.07075c-0.33087,1.7005 -0.82578,2.79399 -1.89766,4.18415c-1.8457,2.35446 -4.5418,3.88831 -7.50859,4.26993c-2.90664,0.36331 -5.83788,-0.43844 -8.15117,-2.22934c-2.13829,-1.68054 -3.52461,-4.14128 -3.84728,-6.84074z" id="Path-1-7" fill="#def1c9"/><path d="M518.28913,343.47094c1.07707,-9.98084 2.2039,-19.98629 3.16669,-29.9751c0.10937,-1.13422 0.33223,-2.49181 1.27505,-3.21692c1.50993,-0.21405 2.06145,0.61464 2.29086,2.03805c2.04587,12.69679 2.5427,26.64445 5.03946,39.19174c0.7361,-2.64292 1.4536,-5.45139 2.50524,-7.97249l5.90406,-0.06474c0.60866,-5.60819 6.57399,-7.7952 10.84836,-3.65066c8.57718,0.98614 13.43835,4.58134 20.85206,8.69503c7.48399,4.15302 13.7747,7.08168 22.30484,8.07109c13.01016,1.68218 26.69078,-4.15438 36.81918,-12.09682c11.40727,-8.94525 20.89664,-17.39305 35.72953,-20.51018c16.44946,-3.45695 32.40808,1.41707 45.73188,11.33191c5.47176,4.07189 10.44394,8.73629 16.21265,12.40031c19.56528,12.95812 39.82671,11.88456 58.65563,-1.82614c12.52343,-9.11844 21.64258,-18.45596 37.72343,-21.83605c16.87383,-3.5471 32.10977,0.98502 45.81172,11.0835c5.60819,4.13116 10.51366,8.59477 16.33516,12.44785c14.84218,10.14638 32.58554,12.33912 48.83866,4.1765c8.95782,-4.49994 16.57305,-10.531 26.5289,-12.0542c1.31796,-0.2016 3.02969,-1.70651 4.46796,-1.90729c4.33671,-0.60508 6.52148,1.7685 7.31446,5.74642l5.99101,0.02459c1.11289,2.37412 1.94961,5.21973 2.75625,7.74384c1.23594,-9.04058 2.41718,-18.08909 3.54101,-27.14461c0.47578,-3.76133 0.87772,-7.50259 1.2961,-11.26719c0.15859,-1.44781 0.67812,-2.70068 2.26953,-2.52365c0.61523,0.54708 0.93242,0.70169 1.06641,1.60848c0.67812,4.58627 1.1457,9.50509 1.64882,14.10976l3.27305,29.66552c0.67812,-2.71505 1.85665,-10.12591 3.39064,-11.7917c2.39531,-0.94653 36.32617,-0.42205 41.12227,-0.4163v2.91009c-4.18906,-0.22701 -10.11719,-0.01994 -14.41289,-0.00629l-24.84453,0.04344c-0.4293,2.89397 -3.3797,18.39423 -5.18984,19.79888c-0.4457,0.3453 -0.6371,0.26908 -1.15936,0.20869c-0.4293,-0.34365 -0.79024,-0.72145 -0.87773,-1.28528c-2.07265,-13.40558 -2.63047,-27.28401 -4.67578,-40.67645c-0.48946,4.52232 -3.41523,33.22845 -4.81523,35.92218c-0.89688,0.4816 -0.54687,0.40975 -1.55312,0.33518c-1.49843,-1.14731 -4.09883,-12.0195 -4.74141,-14.34583l-4.5254,0.07375c-0.03007,0.07267 -0.06016,0.14477 -0.09296,0.2158c-2.28594,4.83868 -6.10312,4.75291 -10.37148,2.76121c-8.04453,1.6221 -16.58671,8.49233 -24.81718,12.16403c-20.88789,9.31567 -41.67735,5.78793 -59.78984,-7.63404c-11.57188,-8.57619 -15.0254,-13.47005 -29.05,-18.84194c-1.51484,-0.62119 -3.75976,-1.75622 -5.28007,-0.90556l-1.11836,0.11254c-0.06563,-0.56519 -0.09843,-0.66381 -0.4539,-1.10798c-4.64843,-1.56499 -13.72656,-0.15325 -18.4953,1.14076c-14.75469,4.00413 -24.77071,15.87423 -37.62228,23.64402c-21.30078,12.87645 -45.96101,11.00659 -65.8566,-3.58837c-4.13819,-3.0341 -8.15772,-6.41979 -12.19941,-9.61998c-8.32782,-6.59462 -18.308,-11.48355 -29.0634,-12.02361c-2.95204,-0.15325 -6.79902,0.31551 -9.73247,0.67966c-1.10113,0.2363 -2.70594,0.5275 -3.75129,0.81788c-14.95101,4.93018 -18.48929,9.9243 -30.72563,19.10091c-19.35773,14.51766 -41.55375,17.7651 -63.33934,6.53779c-7.49355,-3.86182 -13.08099,-8.21779 -21.26578,-10.69654c-3.37505,1.87176 -4.89289,1.92859 -8.33683,0.13851c-0.98629,-1.18502 -1.32835,-1.59176 -1.99145,-2.97319l-4.24484,0.02294c-0.75413,2.49542 -3.07316,13.29112 -4.53523,14.3013c-0.84547,0.08441 -0.99367,0.03224 -1.7224,-0.40839c-1.32207,-2.46454 -4.44582,-31.36411 -5.06133,-36.36252c-0.44352,4.56271 -3.81364,40.39344 -4.85242,42.18706c-0.74866,0.47723 -0.47524,0.44828 -1.27559,0.33245c-2.21512,-1.54833 -4.14613,-13.7241 -4.8527,-17.09366c0.34181,-1.1771 0.93052,-2.40991 2.24684,-2.24219l0.20699,-0.58977c0.65216,2.98303 1.333,5.96005 2.04258,8.92995c0.63902,-3.51926 1.09726,-8.45431 1.48609,-12.05798z" id="Path-1-8" fill="url(#color-1)"/><path d="M677.99387,332.84679c10.7554,0.54006 20.73558,5.42899 29.0634,12.02361c4.04169,3.20019 8.06123,6.58588 12.19942,9.61998c19.89559,14.59496 44.55582,16.46482 65.8566,3.58837c12.85157,-7.76979 22.86758,-19.63989 37.62227,-23.64402c4.76875,-1.29401 13.84688,-2.70575 18.49531,-1.14076c0.35547,0.44417 0.38829,0.54279 0.4539,1.10798l1.11835,-0.11254c1.52031,-0.85066 3.76523,0.28436 5.28007,0.90555c-1.44101,0.01585 -2.89296,-0.75939 -3.98671,-0.47859c-0.26796,0.6925 0.15312,1.7289 0.07657,3.02646c1.46836,0.1475 5.08031,0.12456 6.00452,1.13639c0.56054,0.99161 -0.02482,3.31083 -0.10686,4.51989l-6.52112,-0.03524l-0.04648,6.5335l-4.81398,-0.40447l-0.01766,-6.20252l-6.23925,0.09939c-0.03829,-1.06099 -0.49787,-4.26637 -0.27639,-5.12276c2.29141,-1.1749 6.64963,2.83117 6.41721,-4.86403c-1.25782,-0.91131 -8.1703,-0.04344 -10.08711,0.20897c-15.45195,2.03676 -25.88634,12.99065 -37.94219,21.65015c-8.03087,5.68824 -16.98593,9.40008 -26.59727,11.32921c-4.01134,0.8053 -9.90117,0.48597 -13.98988,0.29066c-33.88273,-1.61827 -42.07712,-34.47689 -76.96146,-33.3282c0.63984,0.07704 1.78254,0.12238 2.22935,0.50372c-0.66007,0.0997 -4.67087,0.48761 -5.10207,0.40374l0.12249,-0.28683c0.55918,-0.0448 0.91054,0.0429 1.21352,-0.28136c-0.43204,-0.62748 -1.10824,-0.37261 -1.69148,-0.07239c-0.23134,0.53349 0.1411,1.7633 0.27946,2.40008c-0.34235,0.9979 -0.48261,1.36558 -1.01172,2.31021c-0.09707,-0.05109 -0.44378,-4.01834 -0.77328,-5.0045c2.93343,-0.36413 6.78043,-0.8329 9.73247,-0.67965z" id="Path-1-9" fill="#c9e2d7"/><path d="M843.29902,333.64049l0.12991,5.1435c2.42383,-0.04393 5.05361,-0.4426 6.68851,1.53999c-0.21546,2.53388 -4.61952,2.24623 -6.6378,2.25288l-0.0285,5.22648l-4.14109,-0.05434l-0.01583,-5.3476l-6.2576,0.04336c-0.00634,-1.21158 0.06654,-2.45699 0.12039,-3.66972l6.21957,0.04279c0.07921,-1.57585 -0.41823,-3.37429 0.23447,-4.66248c0.92516,-0.63512 1.04872,-0.42264 2.39213,-0.39575z" id="Path-1-10" fill="#e9e8e8"/><path d="M570.44514,359.98303c21.78559,11.22731 43.98161,7.97986 63.33935,-6.5378c12.23634,-9.17663 15.7746,-14.17073 30.72563,-19.10091c0.30296,1.17217 4.17211,4.21093 3.68401,5.89912c-0.49,0.45784 -0.68059,0.48543 -0.84028,1.05308c-1.65319,-0.16527 -2.47843,0.61053 -4.20739,0.16309c-0.99941,-0.2587 -4.73483,-4.23961 -5.32272,-3.976c-12.53819,5.59836 -21.19578,16.2979 -33.44442,22.71442c-16.24629,8.51036 -32.67824,9.44897 -49.70601,2.40417c-7.84575,-3.2461 -16.94053,-10.26467 -25.1691,-12.40906c-1.5884,-0.41412 -6.58465,3.64191 -8.66169,-0.76815c3.44394,1.7901 4.9618,1.73328 8.33683,-0.1385c8.18481,2.47875 13.77224,6.83472 21.26579,10.69654z" id="Path-1-11" fill="#d8e5ea"/><path d="M668.9644,343.87256c1.7049,-2.51023 6.50034,-9.13325 9.15138,-6.25549l0.00342,0.57713c-1.6502,1.38539 -7.99201,6.5765 -8.29288,8.92723c6.36668,5.24201 12.17481,-3.56071 12.858,-11.66854c-0.44727,-0.50831 -0.59711,-0.6197 -1.12924,-0.97171l0.23529,-0.3715c6.36108,0.94388 -0.29902,21.04167 -13.25213,14.35499c-0.75625,1.33647 -1.70364,3.2258 -2.74927,4.08574c0.8961,-2.74968 2.20098,-4.62073 2.45275,-7.62936z" id="Path-1-12" fill="#d8e5ea"/><path d="M668.26141,333.52644c0.32949,0.98614 0.67621,4.95341 0.77328,5.0045c0.52911,-0.94463 0.66937,-1.31231 1.01172,-2.31021c1.2384,-0.24858 2.24574,-0.65342 3.45624,-0.45729c-1.8807,0.75749 -5.03972,2.7664 -4.92023,5.0512l-0.63575,0.72008l-0.59282,-0.2382c0.15969,-0.56765 0.35028,-0.59524 0.84028,-1.05308c0.48808,-1.68819 -3.38105,-4.72695 -3.68401,-5.89912c1.04535,-0.29038 2.65016,-0.58158 3.75129,-0.81788z" id="Path-1-13" fill="#e9e8e8"/><path d="M927.07556,343.29068c0,5.77047 -4.67789,10.44837 -10.44837,10.44837c-5.77047,0 -10.44837,-4.6779 -10.44837,-10.44837c0,-5.77047 4.67789,-10.44837 10.44837,-10.44837c5.77047,0 10.44837,4.6779 10.44837,10.44837z" id="Path-1-14" fill-opacity="0" fill="#000000"/></g></g></g><g id="Group-1-3" fill="none" stroke="none" stroke-width="1" stroke-linecap="butt" stroke-linejoin="miter" font-family="sans-serif" font-weight="normal" font-size="12" text-anchor="start"/><path d="M838.99843,349.75446v-16.15947h4.36877v16.15947z" id="Path-1-15" fill-opacity="0" fill="#000000" stroke="#c9e2d7" stroke-width="1" stroke-linecap="round" stroke-linejoin="round"/><path d="M832.1293,338.41128h18.00176v4.36877h-18.00176z" id="Path-53361-1" fill-opacity="0" fill="#000000" stroke="#c9e2d7" stroke-width="1" stroke-linecap="round" stroke-linejoin="round"/><g id="Path-1-16"><path d="M843.69978,338.60562c1.4372,0 5.09757,-0.93943 6.22888,0.0356c0.32356,0.27886 0.37388,1.671 0.28611,1.98384c-0.16664,0.59402 -0.37319,2.15978 0.13781,2.22365c0.511,0.06387 -3.84388,0.25739 -6.27067,0.25739" id="Path-1-17" fill-opacity="0" fill="#000000"/><path d="M844.20331,343.14639c-0.01893,-0.00421 -0.03241,-0.02097 -0.03246,-0.04036c-0.00005,-0.01939 0.01335,-0.03622 0.03226,-0.04053v0l0.9967,-0.06417l1.00029,-0.07558l0.99581,-0.08365l0.99661,-0.09113l0.9908,-0.09978l0.97975,-0.11884l-0.54261,-0.28156l0.00677,-1.09556l0.15467,-0.92413l-0.01344,-0.90971l-0.2779,-0.54563l-0.84059,-0.25893l-0.96248,-0.07498l-0.98839,0.0156l-0.99597,0.0592l-1.00001,0.06893l-1.00334,0.02006v0v0v0l0.98942,-0.13685l0.98373,-0.18543l0.98999,-0.17691l1.00563,-0.1347l1.03578,-0.0405l1.09331,0.2091l0.7797,1.0274l0.14536,1.08079l-0.16476,1.04525l-0.10615,0.89756l-0.21742,1.06346l-1.01867,0.01399l-1.00205,-0.00732l-1.00417,-0.01617l-1.00165,-0.02373l-1.00484,-0.03186l-0.99969,-0.04331z" id="item60558-1" fill="#c2e3c5" stroke="none" stroke-width="1" stroke-linecap="butt" stroke-linejoin="miter"/></g></g></g></g></g></svg>